<?xml version="1.0" standalone="no"?>
<svg version="1.0" xmlns="http://www.w3.org/2000/svg"
 width="736.000000pt" height="736.000000pt" viewBox="0 0 736.000000 736.000000"
 preserveAspectRatio="xMidYMid meet">
<metadata>
Created by potrace 1.14, written by Peter Selinger 2001-2017
</metadata>
<g transform="translate(0.000000,736.000000) scale(0.100000,-0.100000)"
fill="#000000" stroke="none">
<path d="M3459 7356 c-2 -2 -43 -6 -90 -10 -47 -4 -95 -8 -105 -10 -10 -2 -46
-7 -79 -10 -355 -42 -797 -177 -1139 -349 -156 -78 -433 -240 -456 -267 -3 -3
-35 -27 -72 -53 -253 -179 -529 -445 -737 -712 -34 -44 -68 -87 -74 -95 -24
-30 -157 -230 -157 -236 0 -3 -13 -25 -29 -48 -41 -59 -169 -310 -223 -436
-40 -92 -59 -141 -123 -325 -18 -50 -75 -263 -90 -338 -2 -10 -6 -26 -9 -35
-11 -37 -57 -357 -64 -444 -14 -179 -5 -685 13 -741 2 -6 6 -36 10 -66 3 -30
8 -64 10 -75 2 -12 7 -39 10 -60 6 -45 7 -50 36 -176 64 -283 149 -528 278
-795 37 -77 86 -171 109 -209 23 -37 42 -70 42 -73 0 -20 285 -423 324 -458 6
-5 33 -37 61 -70 63 -76 279 -293 370 -371 128 -110 366 -285 476 -349 224
-131 334 -186 525 -266 162 -67 444 -160 524 -173 14 -2 54 -11 90 -20 36 -8
92 -20 125 -26 33 -5 69 -12 80 -14 11 -2 40 -6 65 -10 43 -5 65 -8 240 -26
78 -8 570 -6 605 3 12 3 52 8 90 11 39 4 113 14 165 22 108 18 100 17 200 39
41 9 86 18 100 21 46 9 272 76 349 104 218 79 511 217 656 310 17 11 44 27 60
36 17 9 70 44 119 78 49 34 98 68 110 76 175 119 460 386 631 590 44 52 82 97
85 100 14 12 145 197 197 277 122 190 236 406 312 593 23 58 46 114 51 125 48
107 156 510 176 655 3 24 7 47 9 50 2 3 6 34 10 70 4 36 9 74 11 85 25 128 25
696 0 845 -2 14 -7 50 -11 80 -4 30 -8 62 -10 70 -2 8 -6 35 -10 60 -19 129
-86 394 -136 543 -157 461 -410 898 -738 1272 -55 63 -291 295 -351 345 -359
301 -735 521 -1159 676 -123 45 -429 128 -551 149 -19 3 -42 7 -50 9 -8 1 -37
6 -65 10 -27 4 -61 10 -75 12 -14 2 -56 6 -95 10 -38 4 -74 9 -79 12 -10 6
-541 14 -547 8z"/>
</g>
</svg>
