<svg xmlns="http://www.w3.org/2000/svg" width="126" height="110" viewBox="0 0 126 110" fill="none">
    <path d="M112.129 32.1501C111.875 31.8801 111.604 31.6101 111.334 31.3559C111.064 31.1018 110.81 30.8158 110.54 30.5617C110.27 30.3075 110.016 30.0216 109.746 29.7675C109.476 29.5133 109.222 29.2274 108.952 28.9732C108.682 28.7191 108.428 28.4332 108.158 28.179C107.888 27.9249 107.633 27.639 107.363 27.3848C107.093 27.1306 106.839 26.8447 106.569 26.5906C114.448 34.3338 118.962 44.8677 119.134 55.9133C119.134 82.2339 92.416 103.646 59.5669 103.646C41.1727 103.646 24.7164 96.927 13.772 86.3956L14.5662 87.1899L15.3604 87.9841L16.1546 88.7783L16.9489 89.5725L17.7431 90.3668L18.5373 91.161L19.3315 91.9552C30.2601 102.931 47.0817 110 65.9207 110C98.7698 110 125.488 88.5877 125.488 62.3465C125.488 51.1321 120.659 40.5054 112.129 32.1501Z" fill="black"/>
    <path d="M115.162 55.9134C115.162 80.0737 90.2714 99.6593 59.5667 99.6593C28.862 99.6593 3.97107 80.0737 3.97107 55.9134C3.97107 40.9344 13.5018 27.7026 28.1472 19.8557C42.7927 12.0087 51.9104 3.97119 59.5667 3.97119C67.2231 3.97119 73.7675 10.5315 90.9862 19.8557C105.632 27.7026 115.162 40.9344 115.162 55.9134Z" fill="#FBF0DF"/>
    <path d="M115.162 55.9132C115.155 52.8095 114.727 49.7211 113.892 46.7319C109.555 99.6272 45.0324 102.169 19.6649 86.3478C31.0684 95.1865 45.1406 99.881 59.5667 99.659C90.2238 99.659 115.162 80.0417 115.162 55.9132Z" fill="#F6DECE"/>
    <path d="M38.1704 16.9488C45.2707 12.6918 54.7061 4.70188 63.9826 4.68599C62.5555 4.22471 61.0665 3.98367 59.5667 3.97119C55.7227 3.97119 51.6245 5.95675 46.462 8.94303C44.6671 9.99141 42.8086 11.151 40.8389 12.3582C37.1379 14.6456 32.8967 17.2347 28.1314 19.8239C13.0093 28.0044 3.97107 41.4903 3.97107 55.9134C3.97107 56.5488 3.97107 57.1842 3.97107 57.8037C13.5971 23.795 31.0859 21.2059 38.1704 16.9488Z" fill="#FFFEFC"/>
    <path fill-rule="evenodd" clip-rule="evenodd" d="M54.992 7.98995C55.0142 11.7406 54.2268 15.4519 52.6834 18.8704C51.14 22.2889 48.877 25.334 46.0491 27.7979C45.6043 28.195 45.9538 28.9575 46.5256 28.7351C51.8787 26.6542 59.1061 20.4275 56.0563 7.86287C55.9292 7.14807 54.992 7.33868 54.992 7.98995ZM58.5978 7.98995C60.5414 11.1612 61.7762 14.7152 62.2176 18.4083C62.6591 22.1015 62.2966 25.8464 61.1552 29.3863C60.9646 29.9423 61.6476 30.4188 62.0288 29.9582C65.5075 25.5105 68.5415 16.6788 59.4556 7.14807C58.9949 6.73507 58.2801 7.37045 58.5978 7.92641V7.98995ZM62.9819 7.71991C66.0256 9.87472 68.5718 12.6572 70.4488 15.8796C72.3258 19.102 73.49 22.6895 73.8628 26.4001C73.8467 26.5338 73.8827 26.6685 73.9633 26.7764C74.0439 26.8843 74.163 26.957 74.2958 26.9795C74.4285 27.002 74.5649 26.9725 74.6765 26.8971C74.7881 26.8218 74.8665 26.7063 74.8953 26.5748C76.3566 21.0311 75.5307 11.5798 63.5061 6.67153C62.8707 6.41738 62.4577 7.27514 62.9819 7.65637V7.71991ZM33.6592 24.2398C37.2797 23.1581 40.6318 21.3261 43.4972 18.863C46.3627 16.3998 48.6772 13.3608 50.2902 9.94374C50.5761 9.3719 51.4816 9.59428 51.3386 10.2297C48.5906 22.9372 39.3935 25.5899 33.6751 25.2405C33.0714 25.2564 33.0873 24.4145 33.6592 24.2398Z" fill="#CCBEA7"/>
    <path d="M59.5668 103.646C26.7177 103.646 0 82.2339 0 55.9134C0 40.0289 9.81661 25.2087 26.257 16.3292C31.0224 13.7877 35.1047 11.2303 38.7422 8.99061C40.7437 7.75163 42.6339 6.59206 44.4607 5.51191C50.0361 2.20794 54.8015 0 59.5668 0C64.3321 0 68.4939 1.90614 73.704 4.98773C75.2924 5.89314 76.8809 6.87798 78.5805 7.95812C82.5358 10.4043 86.9993 13.1682 92.8766 16.3292C109.317 25.2087 119.134 40.013 119.134 55.9134C119.134 82.2339 92.4159 103.646 59.5668 103.646ZM59.5668 3.97112C55.7228 3.97112 51.6246 5.95668 46.4621 8.94296C44.6672 9.99134 42.8087 11.1509 40.839 12.3581C37.1379 14.6455 32.8968 17.2347 28.1314 19.8238C13.0094 28.0043 3.97112 41.4903 3.97112 55.9134C3.97112 80.0419 28.9098 99.6751 59.5668 99.6751C90.2238 99.6751 115.162 80.0419 115.162 55.9134C115.162 41.4903 106.124 28.0043 90.9863 19.8556C84.982 16.6787 80.296 13.6924 76.4997 11.3415C74.7682 10.2773 73.1798 9.29242 71.7343 8.41877C66.9213 5.55957 63.4108 3.97112 59.5668 3.97112Z" fill="black"/>
    <path d="M70.7654 67.509C70.0518 70.4316 68.4275 73.0517 66.1271 74.9906C64.4001 76.6647 62.1644 77.7155 59.7734 77.9769C57.3105 77.7569 54.9963 76.7035 53.2131 74.9906C50.9362 73.0425 49.3347 70.4235 48.6383 67.509C48.6153 67.336 48.6321 67.16 48.6875 66.9945C48.743 66.8289 48.8356 66.6783 48.9583 66.5541C49.0809 66.4299 49.2304 66.3355 49.3952 66.278C49.56 66.2205 49.7358 66.2014 49.9091 66.2224H69.5105C69.6826 66.2041 69.8566 66.225 70.0193 66.2837C70.1821 66.3424 70.3295 66.4372 70.4503 66.5611C70.5711 66.685 70.6622 66.8346 70.7168 66.9988C70.7714 67.163 70.788 67.3375 70.7654 67.509Z" fill="#B71422"/>
    <path d="M53.2131 75.118C54.9927 76.8319 57.2985 77.8953 59.7575 78.136C62.2108 77.8918 64.5105 76.8287 66.286 75.118C66.8539 74.5886 67.3847 74.0207 67.8744 73.4183C66.8959 72.3082 65.7006 71.41 64.3621 70.779C63.0235 70.148 61.5701 69.7975 60.091 69.749C58.5085 69.7865 56.9587 70.208 55.5752 70.9772C54.1917 71.7465 53.0158 72.8404 52.1488 74.1649C52.5141 74.4985 52.8318 74.8162 53.2131 75.118Z" fill="#FF6164"/>
    <path d="M53.4672 73.8631C54.2547 72.8452 55.2628 72.019 56.4156 71.4468C57.5683 70.8745 58.8359 70.571 60.1228 70.5592C62.5016 70.6293 64.7681 71.5869 66.4766 73.2436C66.8419 72.8465 67.1914 72.4335 67.525 72.0205C65.5042 70.096 62.8336 69.0017 60.0434 68.9548C58.5523 68.9677 57.0825 69.3105 55.7395 69.9586C54.3965 70.6068 53.2137 71.5442 52.2759 72.7036C52.6515 73.1116 53.0492 73.4987 53.4672 73.8631Z" fill="black"/>
    <path d="M59.7098 78.93C57.0629 78.6981 54.572 77.5786 52.6413 75.7531C50.1824 73.6734 48.4517 70.8631 47.7012 67.7314C47.6474 67.4526 47.6565 67.1653 47.728 66.8905C47.7994 66.6157 47.9314 66.3603 48.1142 66.143C48.3319 65.8801 48.6067 65.6705 48.9178 65.5301C49.2289 65.3897 49.568 65.3222 49.9091 65.3329H69.5106C69.8512 65.3257 70.1891 65.3947 70.4997 65.5349C70.8102 65.675 71.0855 65.8828 71.3055 66.143C71.4866 66.361 71.6162 66.617 71.685 66.892C71.7537 67.1669 71.7598 67.4538 71.7026 67.7314C70.9521 70.8631 69.2214 73.6734 66.7626 75.7531C64.836 77.5753 62.3512 78.6946 59.7098 78.93ZM49.9091 67.1755C49.655 67.1755 49.5914 67.2867 49.5755 67.3184C50.247 70.0342 51.7659 72.4655 53.912 74.26C55.4813 75.8061 57.5217 76.7843 59.7098 77.0397C61.8923 76.7872 63.9304 75.8212 65.5077 74.2917C67.6471 72.4942 69.1601 70.0634 69.8283 67.3502C69.7936 67.2994 69.7456 67.2592 69.6896 67.234C69.6335 67.2087 69.5716 67.1995 69.5106 67.2072L49.9091 67.1755Z" fill="black"/>
    <path d="M83.7429 68.4939C88.8749 68.4939 93.0353 66.0475 93.0353 63.0297C93.0353 60.0119 88.8749 57.5654 83.7429 57.5654C78.6108 57.5654 74.4504 60.0119 74.4504 63.0297C74.4504 66.0475 78.6108 68.4939 83.7429 68.4939Z" fill="#FEBBD0"/>
    <path d="M35.6606 68.4939C40.7926 68.4939 44.953 66.0475 44.953 63.0297C44.953 60.0119 40.7926 57.5654 35.6606 57.5654C30.5285 57.5654 26.3682 60.0119 26.3682 63.0297C26.3682 66.0475 30.5285 68.4939 35.6606 68.4939Z" fill="#FEBBD0"/>
    <path fill-rule="evenodd" clip-rule="evenodd" d="M40.0287 60.8377C41.7604 60.8408 43.4542 60.3302 44.8956 59.3704C46.337 58.4106 47.4613 57.0447 48.1261 55.4457C48.791 53.8467 48.9666 52.0864 48.6307 50.3876C48.2948 48.6888 47.4624 47.1278 46.239 45.9021C45.0156 44.6765 43.4562 43.8414 41.7579 43.5024C40.0597 43.1634 38.2991 43.3357 36.6989 43.9977C35.0987 44.6597 33.7308 45.7815 32.7684 47.2212C31.806 48.6608 31.2922 50.3536 31.2922 52.0853C31.2922 54.4039 32.2122 56.6277 33.8501 58.2686C35.4881 59.9095 37.7102 60.8335 40.0287 60.8377ZM79.3746 60.8377C81.1083 60.8503 82.8066 60.3477 84.2543 59.3936C85.7019 58.4396 86.8336 57.0771 87.5058 55.479C88.178 53.8809 88.3604 52.1191 88.0299 50.4171C87.6994 48.7152 86.8709 47.1497 85.6494 45.9193C84.428 44.6889 82.8686 43.849 81.1691 43.5061C79.4696 43.1632 77.7065 43.3328 76.1036 43.9933C74.5006 44.6539 73.1299 45.7756 72.1653 47.2163C71.2008 48.6569 70.6858 50.3516 70.6857 52.0853C70.6815 54.3969 71.5935 56.616 73.2221 58.2564C74.8507 59.8969 77.063 60.8251 79.3746 60.8377Z" fill="black"/>
    <path fill-rule="evenodd" clip-rule="evenodd" d="M37.3284 52.6411C37.9793 52.6442 38.6166 52.4541 39.1594 52.0947C39.7022 51.7353 40.1261 51.2229 40.3775 50.6223C40.6288 50.0218 40.6961 49.3602 40.5711 48.7213C40.446 48.0824 40.1341 47.4951 39.6749 47.0336C39.2157 46.5722 38.6298 46.2575 37.9916 46.1293C37.3533 46.0011 36.6914 46.0653 36.0896 46.3137C35.4879 46.5621 34.9734 46.9835 34.6114 47.5246C34.2494 48.0657 34.0562 48.702 34.0562 49.353C34.0561 50.2223 34.4004 51.0562 35.0136 51.6724C35.6268 52.2886 36.4591 52.6369 37.3284 52.6411ZM76.6742 52.6411C77.3252 52.6442 77.9625 52.4541 78.5053 52.0947C79.0481 51.7353 79.472 51.2229 79.7233 50.6223C79.9746 50.0218 80.042 49.3602 79.9169 48.7213C79.7918 48.0824 79.4799 47.4951 79.0207 47.0336C78.5615 46.5722 77.9757 46.2575 77.3374 46.1293C76.6992 46.0011 76.0372 46.0653 75.4355 46.3137C74.8337 46.5621 74.3193 46.9835 73.9573 47.5246C73.5953 48.0657 73.402 48.702 73.402 49.353C73.4019 50.2169 73.7418 51.046 74.3482 51.6613C74.9545 52.2766 75.7787 52.6286 76.6424 52.6411H76.6742Z" fill="white"/>
</svg>