<svg xmlns="http://www.w3.org/2000/svg" viewBox="0 0 98 110" fill="none">
    <path d="M96.5062 82.5001C97.2732 81.1715 97.7498 79.6746 97.7498 78.3304V31.6696C97.7498 30.3254 97.2739 28.8288 96.5066 27.5002L48.875 55.0002L96.5062 82.5001Z" fill="#CFCFCF"/>
    <path d="M53.1075 108.992L93.5171 85.6616C94.6812 84.9895 95.7392 83.829 96.5061 82.5001L48.8749 55.0002L1.24365 82.5004C2.01064 83.829 3.06895 84.9898 4.23268 85.6616L44.6423 108.992C46.9701 110.336 50.7797 110.336 53.1075 108.992Z" fill="white"/>
    <path d="M96.5064 27.4999C95.7391 26.171 94.6808 25.0105 93.5171 24.3384L53.1075 1.00816C50.7797 -0.336054 46.97 -0.336054 44.6422 1.00816L4.23262 24.3384C1.90452 25.6823 0 28.9815 0 31.6696V78.3304C0 79.6746 0.47629 81.1715 1.24359 82.5001L48.8748 55.0002L96.5064 27.4999Z" fill="#E2E2E2"/>
    <path d="M48.8747 87.5834C30.9083 87.5834 16.2915 72.9666 16.2915 55.0002C16.2915 37.0337 30.9083 22.4169 48.8747 22.4169C60.468 22.4169 71.2802 28.6557 77.0915 38.6983L62.9903 46.8582C60.0818 41.8314 54.6726 38.7085 48.8747 38.7085C39.8913 38.7085 32.5831 46.0168 32.5831 55.0002C32.5831 63.9832 39.8913 71.2918 48.8747 71.2918C54.6733 71.2918 60.0824 68.1689 62.9912 63.1412L77.0924 71.3007C71.2811 81.3443 60.4686 87.5834 48.8747 87.5834Z" fill="#222222"/>
    <path d="M81.4582 53.1899H77.8377V49.5696H74.2177V53.1899H70.5972V56.8101H74.2177V60.4307H77.8377V56.8101H81.4582V53.1899Z" fill="black"/>
    <path d="M95.0344 53.1899H91.4138V49.5696H87.7939V53.1899H84.1733V56.8101H87.7939V60.4307H91.4138V56.8101H95.0344V53.1899Z" fill="black"/>
</svg>