<svg xmlns="http://www.w3.org/2000/svg" width="108" height="96" viewBox="0 0 108 96" fill="none">
    <path d="M32.2799 85.484C28.1619 82.2556 23.7739 79.1684 20.7765 74.8167C14.4645 67.1391 9.60394 58.2542 6.28254 48.9119C4.27417 42.8384 3.58221 36.3244 0.996647 30.4829C-1.71043 26.2456 1.46245 21.6047 6.12727 20.2595C8.20314 19.8627 11.852 17.9055 7.44368 19.3044C3.49445 22.1899 3.11303 16.6813 7.16352 16.3316C9.93135 15.9617 10.944 13.7085 9.99886 11.684C7.0285 9.75366 17.1952 7.63836 12.0781 4.7563C6.75172 -0.96072 19.531 -2.06377 16.3784 4.44019C15.629 9.43754 25.3097 3.51874 23.0617 9.29629C25.3468 12.0707 31.615 9.92853 31.4563 13.8195C34.7845 14.0481 35.9254 16.836 39.051 17.0479C42.2914 18.5041 48.1545 19.6508 49.2549 23.2862C46.0482 25.8185 38.6122 18.0568 38.251 25.0686C39.2231 35.4265 38.9734 46.0937 42.7741 55.9573C44.5732 61.9265 48.9342 66.6279 52.8665 71.2789C56.6369 75.8324 61.7439 79.0406 66.942 81.7377C71.5055 83.8833 76.4269 85.3024 81.3989 86.197C83.414 84.6601 86.9784 78.9465 90.1209 81.3543C90.2728 84.0649 83.8764 87.0175 89.8171 86.7182C93.3107 85.669 95.7308 89.4086 98.6033 86.0322C101.253 89.1597 109.607 84.038 107.727 90.4242C105.179 92.062 101.462 91.0733 98.9105 93.3264C94.7013 91.2313 91.3496 95.1996 86.6915 94.6985C81.517 95.6234 76.2547 95.9933 71.0094 96C62.4021 95.3274 53.6159 95.0382 45.4305 92.0519C40.8163 90.7168 36.3169 88.1004 32.2664 85.4807L32.2799 85.484ZM39.5472 88.6217C44.05 90.5587 48.4583 92.6034 53.3864 93.2222C61.2173 94.3051 69.3014 95.9798 77.1593 94.453C73.6017 92.8523 69.9259 95.0752 66.3817 93.3096C62.1287 94.2176 57.6056 93.0742 53.2176 92.5126C48.3064 90.3334 43.0036 88.8335 38.4063 86.0019C32.658 83.9102 41.3767 88.6856 42.9293 89.0723C46.5208 91.1035 38.9801 88.0634 37.9135 87.1891C34.9026 85.5076 34.5212 85.8573 37.6164 87.5657L39.5067 88.6217H39.5472ZM30.9736 82.5885C35.338 84.2027 30.9534 79.5282 28.9585 79.7973C28.0742 78.2671 25.573 77.2986 27.3383 76.478C24.1654 77.5744 24.0169 72.308 22.5284 73.0613C19.1732 72.0053 21.2221 68.2657 17.229 65.9654C16.8644 63.5441 13.2595 61.449 12.1119 57.8002C11.6056 55.9304 8.03775 50.5698 10.2284 55.5605C12.0916 60.3695 15.3725 64.4824 18.1066 68.5919C20.2263 72.5064 22.7309 76.5958 26.5924 79.0406C27.8953 80.2849 29.1509 82.1917 30.9871 82.5818L30.9736 82.5885ZM18.4036 68.8341C19.2002 70.2532 18.5555 68.1783 18.4036 68.8341ZM36.2022 84.5155C37.1675 84.085 34.8115 83.9707 36.2022 84.5155ZM38.5649 85.3764C38.3185 84.1893 37.4848 86.0423 38.5649 85.3764ZM41.5353 86.6073C42.9462 85.2688 39.3582 85.7665 41.5353 86.6073ZM46.6187 89.4322C47.476 88.171 43.8745 88.9613 46.6187 89.4322ZM36.8637 82.6558C39.0577 81.2434 34.0284 82.6356 36.8637 82.6558ZM39.0915 83.7656C39.024 83.019 38.2983 84.1019 39.0915 83.7656ZM50.2067 90.6798C51.9957 91.803 60.6435 93.1415 55.2293 91.1405C54.318 91.3289 45.1875 88.5645 50.2067 90.6798ZM32.5601 76.9859C32.3913 76.2393 29.7855 76.1586 32.5601 76.9859ZM37.7346 79.9923C39.0847 79.0507 34.9397 79.2693 37.7346 79.9923ZM42.1226 82.6827C44.0567 81.9563 38.9902 81.9529 42.1226 82.6827ZM30.4471 74.6957C32.5398 76.2964 38.9059 74.8975 33.6537 73.7406C31.2673 72.4728 25.8903 71.6051 29.556 74.504L30.4437 74.6957H30.4471ZM45.0288 83.5638C45.9064 82.0841 41.3632 82.7163 45.0288 83.5638ZM40.5969 80.0562C45.7276 81.5023 36.2865 76.8278 39.3312 79.5182L40.0062 79.8208L40.5969 80.0495V80.0562ZM49.481 85.1679C54.3416 85.215 45.093 84.4953 49.481 85.1679ZM28.5771 71.8943C28.3881 70.9931 27.3788 71.9683 28.5771 71.8943ZM57.6968 89.7584C57.825 88.1307 56.1103 90.969 57.6968 89.7584ZM36.8705 76.9455C36.5768 76.0879 35.3515 76.9119 36.8705 76.9455ZM29.0395 71.3294C31.8276 71.1612 25.2253 70.1052 29.0395 71.3294ZM19.7673 65.3635C19.4196 64.0317 16.7362 62.9691 19.7673 65.3635ZM44.1107 80.7557C43.8745 80.8801 43.6044 80.1739 44.1107 80.7557ZM59.2596 90.0207C59.2123 89.1328 58.436 90.357 59.2596 90.0207ZM42.7707 79.3769C43.0407 78.2335 40.391 79.0305 42.7707 79.3769ZM31.4833 72.2474C33.5592 72.0289 28.1586 70.8518 31.4833 72.2474ZM50.5746 84.0682C53.8083 82.7903 47.4254 83.4461 50.5746 84.0682ZM40.6442 77.3524C44.3673 77.83 36.2123 74.8302 39.824 77.0834L40.6442 77.3524ZM53.5889 85.2823C57.0655 83.214 55.9179 90.135 59.4891 85.8674C63.0096 83.3048 56.4512 89.0353 60.7852 86.3248C63.9244 84.233 68.5588 87.3168 71.4853 88.319C73.5915 88.2181 75.637 90.135 77.7973 88.9681C81.9491 87.8516 69.6693 87.3135 72.8895 85.3361C69.0888 86.4391 66.2804 84.0245 64.4071 81.5965C60.1405 80.6145 55.2124 78.442 53.0826 74.6822C52.2151 73.2698 54.3315 74.884 52.3332 72.5737C49.7679 70.2969 48.4853 67.7108 46.7571 64.9397C44.6981 63.8468 44.4516 60.6217 44.2457 64.8321C44.2626 62.1754 41.7581 60.3829 41.1404 61.1262C41.1302 58.5703 43.8238 59.8482 41.937 57.9582C41.5319 55.3015 40.1953 52.5439 39.797 49.5441C39.1725 48.0981 39.7092 45.0042 37.6705 48.2763C36.9279 51.7301 37.4241 44.0323 38.5818 46.5679C40.1007 43.9784 38.035 44.2811 37.954 44.641C38.943 42.455 38.5818 39.3544 37.6941 40.5381C38.2206 38.2177 38.5278 32.0131 36.9076 33.1127C37.8865 30.6914 38.7708 22.0251 34.5043 25.3275C32.7761 25.351 29.7855 25.953 28.3712 26.6525C32.8031 29.0873 27.9257 27.5336 26.1164 27.1435C25.8802 29.3967 24.0912 28.4214 21.8634 28.445C25.4346 28.8821 20.1251 32.0769 18.083 30.8394C15.4231 32.1039 20.3782 35.265 18.1336 36.2437C18.4104 37.7133 14.0595 35.7123 14.4004 39.1156C11.8216 38.0327 14.046 43.1512 15.3388 41.4192C19.7268 42.603 18.4273 45.3001 18.5386 47.866C17.8231 49.3592 15.008 44.3551 17.9108 44.5871C15.6155 40.8778 15.3793 43.242 13.4722 44.9705C13.0334 45.095 18.3327 47.4255 15.0046 48.5689C17.9311 49.0195 18.0155 51.572 18.6095 53.1829C20.3647 55.0089 20.0036 51.1651 22.1098 53.3611C20.7765 51.4106 15.0552 47.8559 19.6627 48.9893C19.639 47.0253 18.8289 45.438 20.2432 45.475C21.644 42.9527 18.7783 51.6964 21.9309 48.4882C22.8018 48.1082 23.0212 45.966 24.5874 48.69C26.8624 50.923 25.411 52.5372 22.1976 50.4925C22.7714 52.4363 26.4945 53.129 25.7924 56.1658C26.535 58.8393 27.5712 57.854 28.4758 57.6993C29.1509 60.2955 29.5897 58.3853 29.6235 57.1511C32.8706 57.8439 32.1078 59.7574 33.1272 61.0925C35.3651 62.1014 29.9205 54.2725 33.7685 58.7385C37.8088 62.3704 35.2874 63.8939 31.6589 63.3121C33.9541 63.1271 34.6967 66.406 37.5658 66.2883C40.1851 67.5326 41.9538 72.2979 37.4443 70.3104C35.8815 68.9047 30.3357 67.1694 34.8655 69.8396C39.0442 71.7699 42.3656 72.92 46.3959 75.3447C49.2785 77.3625 50.524 79.7435 51.6176 80.2109C49.1941 81.3644 44.3133 79.2895 47.9047 78.6539C45.6432 78.2436 43.0981 77.1069 45.2651 79.9116C47.1081 81.4451 51.7898 81.2837 52.6303 81.4586C51.9214 83.019 50.6962 83.1401 52.6573 83.2645C50.47 84.4281 53.3594 84.6097 53.5619 85.2722L53.5889 85.2823ZM49.1131 72.6914C47.7798 71.3025 47.4355 68.7063 48.8768 70.9662C49.6194 71.2621 51.2396 75.2136 49.1131 72.6914ZM63.6949 81.8756C64.5252 81.8218 63.7185 82.5045 63.6949 81.8756ZM47.0203 69.2477C47.4996 70.8619 46.9663 67.1492 47.0203 69.2477ZM45.5689 67.3073C47.6785 68.2153 43.8913 64.0788 45.5689 67.3073ZM28.01 55.2006C28.9957 54.9383 28.4961 56.8754 28.01 55.2006ZM41.9842 62.7471C42.6593 64.6438 42.5918 60.4838 41.9842 62.7471ZM32.1112 55.9068C33.5626 57.0772 31.4158 54.6626 32.1112 55.9068ZM40.5834 58.6107C38.997 55.0695 41.7108 56.677 40.9378 59.1891L40.5834 58.6107ZM25.9747 48.9052C25.2996 47.7416 24.0946 44.3316 24.4726 43.289C24.8101 44.984 28.091 50.5867 26.0793 45.6431C23.8583 41.473 28.7357 46.995 29.2387 48.0375C29.475 49.07 27.8683 47.755 28.9552 50.1831C26.9704 47.4188 27.7839 51.7099 25.978 48.9388L25.9747 48.9052ZM21.4617 45.8045C22.4946 47.6542 21.6474 43.1007 21.4617 45.8045ZM23.4937 46.504C25.1342 49.3457 24.4625 44.4661 23.4937 46.504ZM18.5656 42.8048C16.8847 41.1401 15.6695 39.61 18.6467 41.7724C19.7943 41.8161 16.0982 38.285 18.9234 40.6491C21.8938 41.1872 20.3884 45.5019 18.569 42.8014L18.5656 42.8048ZM21.131 42.7375C22.1098 41.7723 21.6508 43.6859 21.131 42.7375ZM22.7106 43.242C24.5064 44.4022 21.2255 40.4776 22.7106 43.242ZM19.5715 40.2557C14.6839 35.9174 25.7148 42.5189 20.3681 41.0628L19.5715 40.2557ZM33.5727 48.3604C31.4563 47.0993 33.009 39.4687 33.7314 44.6847C35.7904 44.0222 33.6166 47.3818 35.149 47.3481C34.9127 49.4668 34.2208 50.2335 33.5727 48.3604ZM38.7506 51.4106C39.1894 52.9844 38.9531 49.1103 38.7506 51.4106ZM37.8527 50.5228C38.089 49.5408 37.873 51.6796 37.8527 50.5228ZM20.5639 38.8298C17.4248 34.5151 29.6876 43.1949 22.5756 39.9227C21.833 39.7277 20.9386 39.6604 20.5639 38.8298ZM30.5382 44.0962C31.1998 44.7015 30.2412 40.4642 30.5382 44.0962ZM38.1093 48.9388C38.6932 46.8706 38.1531 50.3075 38.1093 48.9388ZM21.0466 37.1819C22.9132 36.7851 28.81 40.444 23.3925 38.2244C22.795 37.5653 21.5158 37.8646 21.0466 37.1819ZM37.0663 45.1387C37.2688 41.4226 38.1801 42.9191 37.073 45.6767L37.0663 45.1387ZM22.4339 35.8905C23.1967 34.7808 20.4154 30.8696 22.8322 34.4882C23.8448 35.3155 25.8599 35.8737 24.1148 36.2235C26.8658 38.6448 23.4397 36.8793 22.4372 35.8872L22.4339 35.8905ZM36.273 43.9818C36.7962 39.7445 36.7355 46.4603 36.273 43.9818ZM20.8474 31.9828C21.428 31.7339 21.1512 32.7563 20.8474 31.9828ZM24.4591 34.125C26.1738 36.2907 25.3873 32.1812 24.4591 34.125ZM34.6427 39.768C34.8351 40.8543 34.636 39.0282 34.6427 39.768ZM34.052 38.4699C35.4022 40.3095 32.6411 34.996 34.052 38.4699ZM33.1845 36.1898C33.9946 37.9924 32.9483 34.7539 33.1845 36.1898ZM34.5955 33.903C33.6233 32.2014 35.8207 26.4036 36.0671 30.002C35.0444 32.8067 35.7735 34.3739 36.4823 30.6073C37.7987 27.6479 36.2022 36.4488 34.5955 33.903ZM36.0469 25.2737C36.4688 24.7558 36.1414 25.8958 36.0469 25.2737ZM33.62 72.8629C33.6942 73.179 33.0461 72.3584 33.62 72.8629ZM38.6156 75.3784C41.3935 76.0913 41.3834 74.9479 38.8687 74.6049C37.5186 73.3539 33.2588 72.0255 37.073 74.4502C37.3228 75.1228 38.1194 75.0757 38.6156 75.3784ZM28.7594 68.8542C30.2884 69.9976 34.5212 72.0759 30.9399 69.2914C32.1483 67.8924 28.6277 67.1458 29.7923 66.2109C26.8219 64.3949 27.4463 64.5295 29.529 64.6203C25.9578 63.0296 30.0454 63.1507 29.853 62.3335C28.4758 62.0644 23.0144 59.9121 26.2278 62.5083C22.9604 60.8504 25.4515 63.1271 24.4625 62.8883C21.0871 61.9803 27.4328 65.424 23.9325 64.5698C25.8464 66.0831 29.0902 68.4473 24.7426 66.1706C24.1688 66.9911 27.8548 68.2388 28.7931 68.861L28.7594 68.8542ZM33.9811 71.8473C40.3269 73.8852 30.8656 69.3587 33.9811 71.8473ZM60.7144 87.9827C60.7954 86.725 59.8469 89.0589 60.7144 87.9827ZM63.4619 89.1362C64.9269 87.7238 63.5227 91.3894 65.8922 88.7898C65.9159 86.9301 65.8247 85.8304 63.1717 88.0903C62.4392 88.4939 62.1152 90.209 63.4653 89.1328L63.4619 89.1362ZM19.8415 61.8324C19.3926 60.0702 16.6889 60.0769 19.8415 61.8324ZM22.7782 63.7493C21.6879 61.9501 18.8897 62.1182 22.7782 63.7493ZM39.4729 73.781C41.1032 75.227 46.9596 74.8403 41.4509 73.9592C40.6408 72.7586 36.2764 73.0512 39.4729 73.781ZM62.4189 87.9054C64.9269 85.8069 59.9887 88.8403 62.4189 87.9054ZM67.6373 91.4768C67.6542 90.8042 66.5572 91.7694 67.6373 91.4768ZM67.6475 90.5352C70.4254 87.6094 64.9573 90.7033 67.6475 90.5352ZM12.6249 55.8127C10.2621 52.4497 11.1532 50.9364 8.87147 48.1889C8.43942 46.087 4.956 41.3184 7.06901 46.3729C9.00649 49.3323 9.58031 53.9059 12.6249 55.8228V55.8127ZM66.7665 89.5969C71.8802 86.308 64.6737 88.1643 66.7665 89.5969ZM70.6684 91.1203C73.2338 88.9344 69.0482 90.663 70.6684 91.1203ZM18.9707 58.1163C19.7032 57.0301 17.0805 57.9751 18.9707 58.1163ZM69.855 90.0812C72.3325 88.4905 69.2812 88.736 69.406 90.2258L69.855 90.0812ZM36.2292 68.9618C36.1448 67.8857 34.9195 69.0526 36.2292 68.9618ZM38.305 70.1523C37.6434 68.8206 37.2924 70.3608 38.305 70.1523ZM73.8312 91.154C77.0041 88.8672 71.9072 90.7168 73.1662 91.5912L73.8312 91.154ZM72.6161 90.5688C75.205 88.4098 69.882 91.5239 72.6161 90.5688ZM78.8268 94.6884C80.5618 93.5316 76.7172 94.3185 78.8268 94.6884ZM20.5673 57.326C22.8963 57.8439 29.8665 63.0363 25.7553 57.6859C23.649 57.0637 24.9114 51.9352 22.7613 52.8432C24.2026 55.2443 23.9427 56.2667 20.9183 54.7534C17.1142 52.9037 18.7817 55.6681 19.5243 56.4348C18.5116 56.6702 20.8643 57.3092 20.5706 57.3294L20.5673 57.326ZM9.96848 48.9859C10.3837 47.2708 6.13064 39.536 7.96011 45.1118C8.61832 46.2787 8.55081 48.4915 9.96848 48.9859ZM29.4311 60.9412C29.3737 60.8 28.2294 59.9424 29.4311 60.9412ZM32.3812 61.6272C32.3812 59.8112 29.1205 60.8874 32.3812 61.6272ZM57.9567 77.6887C57.4672 76.4444 56.0327 77.6618 57.9567 77.6887ZM59.1853 78.5833C59.003 77.8871 58.5102 78.7178 59.1853 78.5833ZM69.3217 84.946C70.3005 84.2297 68.1065 84.8518 69.3217 84.946ZM15.2577 50.3378C18.0458 49.2617 12.2705 49.571 15.2577 50.3378ZM55.6951 75.7214C55.6614 73.9222 53.9163 76.1687 55.6951 75.7214ZM14.154 47.7752C15.943 47.1699 12.5 47.3784 14.154 47.7752ZM19.3521 50.284C19.3184 49.6921 18.8019 50.5093 19.3521 50.284ZM82.7693 89.0252C85.0713 88.5611 90.3234 90.1922 91.174 88.4199C88.3725 88.3526 81.4968 86.4526 81.1727 88.8705L81.7803 88.9714L82.7693 89.032V89.0252ZM21.0061 50.701C21.0466 48.8783 19.5816 50.6337 21.0061 50.701ZM7.33566 41.2511C6.71459 37.7805 4.97288 40.7265 7.33566 41.2511ZM10.5929 42.0683C10.6334 40.9518 7.60907 41.0661 10.5929 42.0683ZM12.4562 42.9763C12.0376 43.5244 11.9161 42.5391 12.4562 42.9763ZM24.1789 50.4656C24.7325 49.9611 22.8727 50.0957 24.1789 50.4656ZM11.2174 40.9148C10.9001 38.2917 7.43692 40.5213 11.2174 40.9148ZM4.53407 36.5934C4.43956 35.3827 3.88262 37.0508 4.53407 36.5934ZM5.52982 35.8468C5.3678 34.4108 4.67584 36.0284 5.52982 35.8468ZM11.0216 39.1089C13.3439 38.2009 6.79222 37.2256 10.5491 38.9407L11.0216 39.1089ZM84.5312 84.3642C86.0164 83.0055 82.641 83.9438 84.5312 84.3642ZM93.4086 88.9479C94.006 87.1991 91.9065 89.1833 93.4086 88.9479ZM11.5786 36.2571C11.825 34.5588 9.73558 36.5934 11.5786 36.2571ZM3.76111 31.0445C3.34931 28.64 3.41006 24.4363 7.42005 25.8555C2.06328 26.9182 11.133 32.494 9.98536 28.0885C12.2401 28.1995 14.3936 26.7601 13.2089 28.9393C17.6543 28.4584 20.7259 24.6179 25.0194 25.1594C28.3948 24.7154 32.0133 24.3859 35.6182 23.0407C38.5784 22.8288 41.4239 19.6542 39.8037 17.7709C35.7667 17.4346 31.5407 17.9324 27.0784 18.8202C22.1335 19.8425 17.6442 21.7897 12.6553 22.6203C7.79472 23.2727 13.6342 24.4128 12.2401 24.6717C9.70857 25.5461 15.2679 26.138 11.9127 27.0661C9.84022 26.6727 7.68333 25.9631 8.57106 23.7873C3.913 24.3926 -0.181371 26.3162 3.5012 31.0378L3.77123 31.0412L3.76111 31.0445ZM14.9945 25.3779C16.0847 21.3693 20.844 28.6736 16.7834 25.916C16.3007 25.5528 15.5008 25.2602 14.9945 25.3779ZM15.2071 23.4342C16.7834 22.2672 16.0442 24.0899 15.2071 23.4342ZM17.2087 23.4678C17.3539 21.6249 21.7925 24.4767 17.9412 24.1303L17.2087 23.4678ZM19.9428 22.3715C20.9453 21.2045 20.2331 23.4039 19.9428 22.3715ZM20.6449 21.9006C22.3123 19.9064 30.0724 20.6227 24.3578 21.7056C22.8389 20.5622 21.6676 22.3782 20.6449 21.9006ZM30.7711 20.3436C35.8072 22.2773 30.5213 14.8956 30.7711 20.3436ZM33.647 20.3268C34.6933 17.5826 37.7312 19.2237 34.1364 19.7753C34.214 20.0678 34.0284 21.1944 33.647 20.3268ZM10.4478 34.8783C13.5869 32.9614 7.11626 33.217 10.4478 34.8783ZM12.7701 35.5509C13.8705 34.3839 10.4073 35.0801 12.7701 35.5509ZM5.93149 30.6578C7.72046 29.279 3.80499 30.1365 5.93149 30.6578ZM98.6539 88.4502C98.7046 86.8561 97.2835 89.1665 98.6539 88.4502ZM89.2366 82.0437C89.5066 80.2109 88.0214 82.2018 89.2366 82.0437ZM101.253 89.0723C103.761 89.0824 108.854 88.2988 103.396 88.2988C102.539 88.4333 98.4008 88.3997 101.253 89.0723ZM14.8189 34.3671C16.8509 34.2326 17.9918 32.1375 14.424 32.2552C8.88835 31.6835 19.3049 34.1452 13.7489 33.4389C12.9996 33.9333 14.8088 34.5016 14.8527 34.3638L14.8189 34.3671ZM16.6079 35.2684C16.3953 33.9703 15.9801 35.9578 16.6079 35.2684ZM18.7344 29.6321C19.612 28.5425 17.5193 29.3395 18.7344 29.6321ZM11.9836 18.3864C15.6088 17.1589 20.5639 15.7801 22.2786 18.9917C20.5369 16.9067 21.5765 14.8485 23.2237 17.9021C25.5527 20.9893 26.7139 16.4964 25.2017 15.4606C26.9232 17.5927 28.8809 18.6016 26.3561 15.5951C29.107 12.2994 20.8542 16.0256 18.9774 15.9886C18.0762 16.3921 9.66132 18.1274 11.9904 18.3864H11.9836ZM14.1101 14.334C16.1759 12.7803 21.2592 15.2588 17.9986 12.787C17.6779 12.5079 10.8596 14.6602 14.1101 14.334ZM21.644 14.6434C24.0608 14.7039 20.5976 11.4049 23.4802 12.9014C23.0077 11.3611 20.1251 11.0753 18.7142 10.4565C17.9176 11.8622 20.3344 14.6602 21.6406 14.6434H21.644ZM15.4333 7.83005C16.2704 6.70009 13.965 8.40175 15.4333 7.83005ZM18.4981 8.56317C22.3967 8.04864 17.5058 6.89178 17.7117 8.52281L18.4981 8.56317ZM12.7464 4.09044C10.0022 0.51898 17.9108 4.68904 15.1194 0.952801C12.7701 -0.906913 10.5187 3.05129 12.7464 4.09044ZM47.9654 22.9902C49.2245 20.7707 42.7673 19.9972 47.1216 22.2033C47.5199 22.3378 47.4321 23.1449 47.9654 22.9902Z" fill="white"/>
</svg>