<svg xmlns="http://www.w3.org/2000/svg" viewBox="0 0 110 110" fill="none">
    <path d="M0 0H110V110H0V0ZM100.986 83.765C100.186 78.7478 96.9161 74.5311 87.2239 70.5956C83.8506 69.0128 80.1044 67.9189 78.98 65.3767C78.5644 63.8611 78.5033 63.0422 78.7722 62.1439C79.4628 59.1861 82.9706 58.3 85.7206 59.1189C87.5111 59.6689 89.1611 61.0439 90.1939 63.25C94.93 60.1517 94.93 60.1517 98.2361 58.0922C96.9956 56.1733 96.3783 55.3361 95.5533 54.5111C92.6628 51.2844 88.8128 49.6344 82.5611 49.775L79.3344 50.1844C76.2361 50.9422 73.2783 52.5983 71.4939 54.7922C66.2689 60.7078 67.7783 71.0172 74.1033 75.2889C80.355 79.9639 89.5094 80.9906 90.6767 85.3906C91.7767 90.7561 86.6922 92.4733 81.6628 91.8561C77.9533 91.025 75.8878 89.1733 73.6206 85.7328L65.2361 90.5483C66.1956 92.7422 67.2956 93.7078 68.9456 95.6328C76.9206 103.675 96.8611 103.266 100.436 91.025C100.564 90.6156 101.536 87.7983 100.778 83.4656L100.986 83.765ZM59.8156 50.5572H49.5122C49.5122 59.4367 49.4694 68.2672 49.4694 77.165C49.4694 82.8117 49.7567 87.9939 48.8339 89.5889C47.3244 92.7483 43.4194 92.345 41.6533 91.7828C39.8383 90.8906 38.9156 89.65 37.8461 87.8656C37.5589 87.3889 37.345 86.9733 37.2656 86.9733L28.9056 92.1311C30.305 95.0217 32.3461 97.5028 34.98 99.0794C38.8972 101.42 44.1589 102.178 49.6711 100.943C53.2644 99.9044 56.3628 97.7717 57.97 94.4717C60.3167 90.2122 59.8156 84.9811 59.7972 79.1389C59.8461 69.7217 59.7972 60.2983 59.7972 50.8139L59.8156 50.5572Z" fill="white"/>
</svg>