<svg xmlns="http://www.w3.org/2000/svg" width="169" height="110" viewBox="0 0 169 110" fill="none">
    <path d="M168.225 0.56349C167.765 0.182162 167.181 -0.0177922 166.583 0.00124421C164.953 0.00124421 162.844 1.12574 161.714 1.68798C161.517 1.78919 161.365 1.87352 161.259 1.9185C159.362 2.85223 157.293 3.38435 155.181 3.48155C153.01 3.54902 151.138 3.67833 148.715 3.92572C134.288 5.41005 127.884 16.4526 121.693 27.1296C118.32 32.9376 114.845 38.9368 110.071 43.5922C109.084 44.5513 108.034 45.4435 106.929 46.2628C101.992 49.9399 95.7904 52.5431 90.9438 54.3985C86.2996 56.1696 81.2281 57.772 76.3253 59.3126C71.8273 60.7238 67.6048 62.0563 63.7084 63.5069C61.9486 64.1591 60.453 64.6595 59.1374 65.0981C55.5896 66.2788 53.0257 67.1334 49.2924 69.686C47.8361 70.6868 46.3743 71.7663 45.3566 72.5759C42.3916 74.9466 39.7675 77.7145 37.5582 80.8016C35.6649 83.6459 33.479 86.2841 31.0361 88.673C30.249 89.4433 28.849 89.7975 26.7518 89.7975C24.2948 89.7975 21.3149 89.2915 18.1606 88.7517C14.9165 88.1895 11.5542 87.6273 8.6755 87.6273C6.33092 87.6273 4.54297 88.0096 3.1992 88.7855C3.1992 88.7855 0.950201 90.1011 0 91.7991L0.933333 92.2264C2.38075 93.0082 3.72228 93.9719 4.9253 95.0939C6.17456 96.2511 7.5672 97.2431 9.06908 98.0457C9.54889 98.2369 9.98357 98.526 10.3454 98.8947C9.95181 99.4569 9.37269 100.216 8.77108 101.009C5.44257 105.36 3.50281 108.11 4.61606 109.605C5.13582 109.878 5.71628 110.013 6.30281 109.999C13.5558 109.999 17.4466 108.115 22.3775 105.732C23.8056 105.04 25.2787 104.326 26.9655 103.595C29.8442 102.347 32.9478 100.351 36.2313 98.2425C40.5831 95.4312 45.0811 92.5525 49.4386 91.1582C53.0281 90.0616 56.7677 89.5361 60.5205 89.6007C65.1478 89.6007 69.9831 90.2192 74.661 90.8152C78.1526 91.265 81.7623 91.726 85.3044 91.9397C86.6819 92.024 87.9582 92.0634 89.1952 92.0634C90.8538 92.0702 92.5114 91.982 94.1598 91.7991L94.5534 91.6642C97.0386 90.1349 98.2024 86.857 99.3325 83.6859C100.058 81.6506 100.665 79.8177 101.61 78.6257C101.668 78.5667 101.732 78.5139 101.801 78.4683C101.846 78.4432 101.898 78.434 101.949 78.4422C102 78.4503 102.047 78.4754 102.082 78.5132C102.082 78.5132 102.082 78.5132 102.082 78.6032C101.486 91.0007 96.5157 98.8722 91.4667 105.867L88.0932 109.482C88.0932 109.482 92.8104 109.482 95.4924 108.447C105.287 105.512 112.686 99.0633 118.067 88.7686C119.394 86.1253 120.58 83.4133 121.62 80.6442C121.71 80.4136 122.565 79.992 122.48 81.2064C122.48 81.5606 122.43 81.9542 122.402 82.3309C122.402 82.5783 122.368 82.8257 122.357 83.0731C122.216 84.7598 121.794 88.4538 121.794 88.4538L124.819 86.8345C132.129 82.2072 137.751 72.9245 142.002 58.4523C143.778 52.4307 145.077 46.4427 146.224 41.1633C147.596 34.8436 148.782 29.3898 150.16 27.2814C152.285 23.9754 155.529 21.7377 158.667 19.5674L159.949 18.679C163.884 15.9072 167.82 12.708 168.686 6.74819V6.61325C169.361 2.21649 168.827 1.08638 168.225 0.56349Z" fill="white"/>
</svg>