<svg xmlns="http://www.w3.org/2000/svg" width="98" height="110" viewBox="0 0 98 110" fill="none">
    <path d="M48.8103 110C47.2944 110 45.8796 109.596 44.5659 108.888L31.1254 100.905C29.1043 99.7933 30.1148 99.3891 30.7212 99.187C33.4497 98.2774 33.955 98.0753 36.7846 96.4584C37.0877 96.2563 37.492 96.3574 37.7951 96.5595L48.1029 102.724C48.5071 102.926 49.0124 102.926 49.3156 102.724L89.6371 79.3799C90.0413 79.1778 90.2435 78.7735 90.2435 78.2683V31.6812C90.2435 31.1759 90.0413 30.7717 89.6371 30.5696L49.3156 7.3266C48.9113 7.12448 48.4061 7.12448 48.1029 7.3266L7.78135 30.5696C7.37712 30.7717 7.17501 31.277 7.17501 31.6812V78.2683C7.17501 78.6725 7.37712 79.1778 7.78135 79.3799L18.7965 85.7464C24.7588 88.7781 28.4979 85.2412 28.4979 81.7042V35.7235C28.4979 35.1171 29.0032 34.5108 29.7106 34.5108H34.8645C35.4708 34.5108 36.0772 35.0161 36.0772 35.7235V81.7042C36.0772 89.6876 31.7317 94.3362 24.1525 94.3362C21.8282 94.3362 20.0092 94.3362 14.8553 91.8098L4.24437 85.7464C1.6169 84.2306 0 81.401 0 78.3693V31.7823C0 28.7506 1.6169 25.921 4.24437 24.4051L44.5659 1.06109C47.0923 -0.353698 50.5282 -0.353698 53.0547 1.06109L93.3762 24.4051C96.0037 25.921 97.6206 28.7506 97.6206 31.7823V78.3693C97.6206 81.401 96.0037 84.2306 93.3762 85.7464L53.0547 109.09C51.7409 109.697 50.2251 110 48.8103 110ZM61.2402 77.9651C43.5553 77.9651 39.9173 69.8806 39.9173 63.0087C39.9173 62.4024 40.4226 61.796 41.13 61.796H46.3849C46.9913 61.796 47.4966 62.2003 47.4966 62.8066C48.305 68.1626 50.6293 70.7901 61.3413 70.7901C69.83 70.7901 73.4681 68.87 73.4681 64.3225C73.4681 61.695 72.4575 59.7749 59.2191 58.4612C48.2039 57.3496 41.3321 54.9242 41.3321 46.1323C41.3321 37.9467 48.204 33.096 59.7244 33.096C72.6596 33.096 79.0262 37.5425 79.8346 47.2439C79.8346 47.5471 79.7336 47.8503 79.5315 48.1534C79.3293 48.3555 79.0262 48.5576 78.723 48.5576H73.4681C72.9628 48.5576 72.4575 48.1534 72.3564 47.6481C71.1438 42.09 68.011 40.271 59.7244 40.271C50.4272 40.271 49.3156 43.5048 49.3156 45.9302C49.3156 48.8608 50.6293 49.7703 63.1603 51.3872C75.5903 53.0041 81.4515 55.3284 81.4515 64.0193C81.3505 72.9123 74.0744 77.9651 61.2402 77.9651Z" fill="white"/>
</svg>