<svg xmlns="http://www.w3.org/2000/svg" width="79" height="110" viewBox="0 0 79 110" fill="none">
    <path d="M9.91963 52.0769C19.3011 55.3744 29.1981 56.9618 39.1403 56.7636C49.0827 56.9605 58.9797 55.3718 68.361 52.0729C75.6838 49.2169 78.2806 46.0426 78.2806 44.2158V30.2498C75.7204 31.9643 72.9738 33.3824 70.0935 34.4769C60.1677 38.0311 49.6818 39.7639 39.1403 39.5919C28.5997 39.7606 18.1148 38.0307 8.18713 34.4847C5.3054 33.3902 2.55847 31.9693 0 30.2498V44.1962C0 46.0583 2.60464 49.2169 9.91963 52.0769Z" fill="white"/>
    <path d="M9.91963 78.4177C13.2338 79.6816 16.6514 80.6556 20.1339 81.3288C26.3962 82.5402 32.762 83.1363 39.1403 83.1084C45.5185 83.1376 51.8843 82.5429 58.1467 81.3327C61.6292 80.6595 65.0468 79.6855 68.361 78.4217C75.6838 75.5656 78.2806 72.3913 78.2806 70.5645V57.2467C76.1643 58.5201 73.94 59.6047 71.6335 60.4878C61.2062 64.1797 50.2 65.9668 39.1403 65.7638C28.0794 65.9605 17.0732 64.1667 6.64713 60.4681C4.34154 59.5828 2.11743 58.4983 0 57.2271V70.5567C0 72.3874 2.60464 75.5499 9.91963 78.4177Z" fill="white"/>
    <path d="M39.1403 110C60.7474 110 78.2806 103.148 78.2806 94.702V83.5566C76.3554 84.7171 74.3386 85.7183 72.2502 86.5502L71.6335 86.7977C61.2082 90.5006 50.2019 92.2983 39.1403 92.1052C28.0782 92.3039 17.071 90.506 6.64713 86.7977C6.43499 86.7191 6.2307 86.6288 6.03035 86.5502C3.94202 85.7183 1.92519 84.7171 0 83.5566V94.702C0 103.148 17.5332 110 39.1403 110Z" fill="white"/>
    <path d="M39.1403 30.5957C60.7569 30.5957 78.2806 23.7466 78.2806 15.2978C78.2806 6.84907 60.7569 0 39.1403 0C17.5237 0 0 6.84907 0 15.2978C0 23.7466 17.5237 30.5957 39.1403 30.5957Z" fill="white"/>
</svg>