<svg xmlns="http://www.w3.org/2000/svg" viewBox="0 0 110 66" fill="none">
    <path d="M90.75 19.3319C86.6253 17.9141 82.9845 15.3648 80.245 11.9763C77.2258 8.20105 73.3813 5.16499 69.0058 3.10043C64.6302 1.03587 59.8394 -0.00249661 55 0.0647706C48.49 -0.39536 42.0452 1.60858 36.949 5.67752C31.8529 9.74646 28.4792 15.5818 27.5 22.0216C29.4287 18.8008 32.3315 16.2737 35.7907 14.8039C39.2498 13.3342 43.087 12.9976 46.75 13.8427C50.8678 15.3018 54.5027 17.8659 57.255 21.2531C60.2908 24.9982 64.1425 28.0029 68.5172 30.0385C72.8918 32.0741 77.6741 33.087 82.5 33C89.01 33.4601 95.4548 31.4562 100.551 27.3873C105.647 23.3183 109.021 17.4829 110 11.0432C108.106 14.3025 105.213 16.8678 101.747 18.3603C98.2803 19.8528 94.425 20.1934 90.75 19.3319ZM19.25 46.6681C23.3747 48.0859 27.0155 50.6352 29.755 54.0237C32.7742 57.799 36.6187 60.835 40.9942 62.8996C45.3698 64.9641 50.1606 66.0025 55 65.9352C61.51 66.3954 67.9548 64.3914 73.051 60.3225C78.1471 56.2535 81.5208 50.4182 82.5 43.9784C80.5713 47.1992 77.6685 49.7263 74.2093 51.1961C70.7502 52.6658 66.913 53.0024 63.25 52.1573C59.1322 50.6982 55.4973 48.1341 52.745 44.7469C49.7011 41.011 45.8477 38.0129 41.475 35.9782C37.1023 33.9435 32.3241 32.9252 27.5 33C20.99 32.5399 14.5452 34.5438 9.44903 38.6127C4.35285 42.6817 0.979231 48.5171 0 54.9568C1.89369 51.6975 4.78724 49.1322 8.25349 47.6397C11.7197 46.1472 15.575 45.8066 19.25 46.6681Z" fill="white"/>
</svg>