<svg xmlns="http://www.w3.org/2000/svg" viewBox="0 0 110 110" fill="none">
    <path d="M99.2444 0H10.7556C7.90301 0 5.16729 1.13317 3.15023 3.15023C1.13317 5.16729 0 7.90301 0 10.7556V99.2444C0 102.097 1.13317 104.833 3.15023 106.85C5.16729 108.867 7.90301 110 10.7556 110H99.2444C100.657 110 102.055 109.722 103.36 109.181C104.665 108.641 105.851 107.849 106.85 106.85C107.849 105.851 108.641 104.665 109.181 103.36C109.722 102.055 110 100.657 110 99.2444V10.7556C110 9.34312 109.722 7.94451 109.181 6.63958C108.641 5.33466 107.849 4.14897 106.85 3.15023C105.851 2.15148 104.665 1.35923 103.36 0.818717C102.055 0.2782 100.657 0 99.2444 0ZM63.8 61.1111H50.05V100.467H39.1111V61.1111H25.3611V52.1889H63.8V61.1111ZM99.2444 93.3778C98.3598 95.2589 96.9342 96.8334 95.15 97.9C93.2728 99.0554 91.2026 99.8627 89.0389 100.283C86.6265 100.782 84.1688 101.027 81.7056 101.017C79.1851 101.014 76.6698 100.79 74.1889 100.344C72.0802 99.9126 70.0293 99.2358 68.0778 98.3278V87.8778L67.7111 87.5111H68.0778V87.9389C69.9159 89.373 71.9816 90.4885 74.1889 91.2389C76.3931 92.0781 78.7361 92.4928 81.0944 92.4611C82.3268 92.4826 83.5574 92.3596 84.7611 92.0944C85.6652 91.8829 86.5311 91.5324 87.3278 91.0556C87.9515 90.6753 88.4753 90.1515 88.8556 89.5278C89.2318 88.8174 89.3972 88.0144 89.3323 87.2131C89.2673 86.4119 88.9747 85.646 88.4889 85.0056C87.9144 84.2002 87.1878 83.515 86.35 82.9889C85.3327 82.2736 84.2479 81.6596 83.1111 81.1556L79.0167 79.4444C75.7755 78.1096 72.9037 76.0134 70.6444 73.3333C68.7537 71.0541 67.7548 68.1659 67.8333 65.2056C67.7621 62.9566 68.267 60.7267 69.3 58.7278C70.2858 56.9854 71.6674 55.4991 73.3333 54.3889C75.1894 53.154 77.2632 52.283 79.4444 51.8222C81.829 51.2734 84.2698 51.0068 86.7167 51.0278C88.9448 50.9967 91.1719 51.1397 93.3778 51.4556C95.213 51.7425 97.0147 52.2134 98.7556 52.8611V62.9444C97.9511 62.3711 97.0913 61.8797 96.1889 61.4778C95.2172 61.0595 94.2164 60.7123 93.1944 60.4389C92.215 60.1522 91.2134 59.9478 90.2 59.8278C89.265 59.7396 88.3238 59.7396 87.3889 59.8278C86.2374 59.8087 85.088 59.9319 83.9667 60.1944C83.0468 60.3873 82.1611 60.7169 81.3389 61.1722C80.6972 61.5503 80.153 62.0736 79.75 62.7C79.3842 63.3086 79.1938 64.0066 79.2 64.7167C79.1851 65.4747 79.398 66.2198 79.8111 66.8556C80.3131 67.5497 80.9337 68.1496 81.6444 68.6278C82.5061 69.3137 83.4505 69.8886 84.4556 70.3389L88.3056 72.05C90.0758 72.7818 91.7913 73.6396 93.4389 74.6167C94.8877 75.4095 96.2066 76.4194 97.35 77.6111C98.4703 78.6967 99.3454 80.0094 99.9167 81.4611C100.503 83.1294 100.792 84.8874 100.772 86.6556C100.729 88.938 100.208 91.1861 99.2444 93.2556V93.3778Z" fill="white"/>
</svg>