<svg xmlns="http://www.w3.org/2000/svg" viewBox="0 0 110 110" fill="none">
    <path d="M96.4175 22.4769L61.7004 1.85294C57.5542 -0.617646 52.4411 -0.617646 48.2948 1.85294L13.5778 22.4769C9.43152 24.926 6.875 29.4805 6.875 34.4002V75.6267C6.875 80.5464 9.43152 85.1008 13.5778 87.5499L48.2948 108.152C50.3573 109.377 52.6774 110 54.9976 110C57.3178 110 59.6166 109.377 61.7004 108.152L96.4175 87.5499C100.564 85.0793 103.12 80.5464 103.12 75.6267V34.4002C103.12 29.4805 100.564 24.926 96.4175 22.4769Z" fill="white"/>
    <path d="M96.4175 22.4769L61.7004 1.85294C59.638 0.628387 57.3178 0.00537109 54.9976 0.00537109C52.6774 0.00537109 50.3787 0.628387 48.2948 1.85294L13.5778 22.4769C9.43152 24.926 6.875 29.4805 6.875 34.4002V75.6267C6.875 80.5464 9.43152 85.1008 13.5778 87.5499L48.2948 108.152C50.3573 109.377 52.6774 110 54.9976 110C57.3178 110 59.6166 109.377 61.7004 108.152L96.4175 87.5499C100.564 85.0793 103.12 80.5464 103.12 75.6267V34.4002C103.12 29.4805 100.564 24.926 96.4175 22.4769ZM49.5194 106.047L14.8023 85.4446C11.408 83.4251 9.30262 79.6655 9.30262 75.6267V34.4002C9.30262 30.3613 11.408 26.6017 14.8023 24.5823L49.5194 3.97979C51.1951 2.99155 53.0856 2.47595 54.9976 2.47595C56.9097 2.47595 58.8217 2.99155 60.4759 3.97979L95.1929 24.5823C98.0502 26.2795 99.9837 29.2227 100.521 32.5311C99.3607 30.082 96.7827 29.3946 93.7536 31.1777L60.9056 51.4794C56.8022 53.8641 53.7946 56.571 53.7946 61.4907V101.965C53.7946 104.93 54.9762 106.842 56.8237 107.401C56.2222 107.508 55.6207 107.572 54.9976 107.572C53.0856 107.551 51.1736 107.035 49.5194 106.047Z" fill="#283037"/>
    <path d="M87.3296 79.6011L78.6719 84.7786C78.4355 84.9075 78.2637 85.0579 78.2637 85.3371V87.5929C78.2637 87.8722 78.457 87.9796 78.6719 87.8507L87.4585 82.5228C87.6948 82.3939 87.7163 82.1361 87.7163 81.8568V79.8589C87.7378 79.5796 87.5445 79.4722 87.3296 79.6011Z" fill="white"/>
    <path d="M68.9184 60.5669C69.1977 60.4165 69.434 60.6098 69.434 60.9751L69.4555 63.9612C70.7015 63.4671 71.7972 63.3382 72.7854 63.5531C73.0002 63.6175 73.0862 63.8968 73.0002 64.2405L72.3342 66.883C72.2913 67.0763 72.1624 67.2912 72.0335 67.4201C71.969 67.4845 71.9261 67.5275 71.8616 67.549C71.7757 67.5919 71.6897 67.6134 71.6038 67.5919C71.1527 67.4845 70.0785 67.2482 68.4028 68.1075C66.6412 69.0098 66.0181 70.5351 66.0396 71.6737C66.0611 73.0272 66.7486 73.4569 69.1547 73.4783C72.3557 73.5213 73.7521 74.9392 73.7736 78.1617C73.8166 81.3412 72.1194 84.7356 69.5199 86.841L69.5844 89.8057C69.5844 90.1709 69.3481 90.5791 69.0688 90.708L67.3071 91.7177C67.0279 91.8681 66.7915 91.6962 66.7915 91.331L66.7701 88.4093C65.2662 89.0323 63.7409 89.1827 62.7742 88.796C62.5808 88.7315 62.5164 88.4522 62.5808 88.1515L63.2253 85.466C63.2683 85.2512 63.3972 85.0364 63.5476 84.9075C63.612 84.8645 63.655 84.8215 63.7194 84.7786C63.8268 84.7356 63.9128 84.7141 63.9987 84.7571C65.0514 85.1008 66.3834 84.9504 67.6724 84.2845C69.3051 83.4466 70.4007 81.7924 70.3793 80.1167C70.3578 78.6129 69.5414 77.9899 67.5649 77.9684C65.0514 77.9684 62.6882 77.4742 62.6453 73.7576C62.6238 70.707 64.2135 67.5275 66.7271 65.508L66.7056 62.5219C66.7056 62.1566 66.9204 61.7485 67.2212 61.5981L68.9184 60.5669Z" fill="white"/>
</svg>