<svg xmlns="http://www.w3.org/2000/svg" viewBox="0 0 110 110" fill="none">
    <path d="M91.6667 0H18.3394C13.4789 0.0145112 8.82172 1.95219 5.38537 5.38969C1.94902 8.82718 0.0128924 13.485 0 18.3456V91.6667C0.0177148 96.5246 1.95578 101.178 5.39144 104.613C8.82709 108.047 13.4815 109.984 18.3394 110H91.6667C96.5235 109.982 101.176 108.045 104.611 104.611C108.045 101.176 109.982 96.5235 110 91.6667V18.3456C109.986 13.4866 108.05 8.83058 104.615 5.3936C101.18 1.95663 96.5256 0.0177237 91.6667 0ZM81.6478 77.2615C80.7192 79.4607 79.2714 81.4156 77.4142 82.9246C75.218 84.6302 72.7179 85.903 70.0467 86.6755C67.0532 87.598 63.4855 88.0745 59.3558 88.0745H29.8795V23.8987H61.0541C66.815 23.8987 71.4395 25.1999 74.9034 27.8452C78.3794 30.5087 80.1205 34.4552 80.1205 39.8067C80.1205 43.0323 79.3263 45.812 77.7441 48.0967C76.1618 50.3754 73.8954 52.1532 70.9569 53.3994V53.6071C74.8789 54.4319 77.9029 56.2829 79.9006 59.1786C81.8983 62.0682 82.9124 65.7092 82.9124 70.1077C82.9124 72.5819 82.4359 74.9217 81.5378 77.1148L81.66 77.2431V77.2615H81.6478ZM68.9165 61.4451C67.0288 59.7223 64.4019 58.8854 60.993 58.8854H41.1752V78.8987H61.048C64.4324 78.8987 67.1021 78.019 68.9776 76.2413C70.8592 74.4757 71.8122 71.9588 71.8122 68.7332C71.7816 65.5687 70.8592 63.119 68.9776 61.4451H68.892H68.9165ZM66.1613 48.4999C67.9879 46.9666 68.8737 44.7551 68.8737 41.8777C68.8737 38.6643 68.0734 36.3673 66.4484 35.06C64.8356 33.7526 62.5019 33.0684 59.4474 33.0684H41.1141V50.7725H59.4474C62.111 50.7786 64.3958 49.9967 66.1613 48.4999Z" fill="white"/>
</svg>