<svg xmlns="http://www.w3.org/2000/svg" viewBox="0 0 100 110" fill="none">
    <path fill-rule="evenodd" clip-rule="evenodd" d="M47.1132 0.748402C48.9 -0.249467 51.1 -0.249467 52.8842 0.748402C61.7132 5.68013 88.2816 20.5251 97.1132 25.4568C98.9 26.452 100 28.2959 100 30.2916C100 40.1551 100 69.8423 100 79.7058C100 81.7015 98.9 83.5453 97.1132 84.5432C88.2842 89.4749 61.7158 104.32 52.8842 109.252C51.0974 110.249 48.8974 110.249 47.1132 109.252C38.2842 104.32 11.7158 89.4749 2.88421 84.5432C1.1 83.5453 0 81.7041 0 79.7084C0 69.8449 0 40.1577 0 30.2942C0 28.2985 1.1 26.4547 2.88684 25.4568C11.7132 20.5251 38.2868 5.68013 47.1132 0.748402Z" fill="white"/>
    <path fill-rule="evenodd" clip-rule="evenodd" d="M0.802838 82C0.100355 81.0704 0 80.1879 0 78.9998C0 69.2238 0 39.7966 0 30.018C0 28.0388 1.10126 26.2111 2.88916 25.2241C11.7177 20.3361 38.2906 5.62245 47.1192 0.731846C48.9071 -0.257764 51.3288 -0.236876 53.1167 0.752735C61.9453 5.64073 88.4284 20.229 97.257 25.117C97.97 25.5139 98.5141 25.9917 99 26.621L0.802838 82Z" fill="#E2E2E2"/>
    <path fill-rule="evenodd" clip-rule="evenodd" d="M50 18C70.4214 18 87 34.5786 87 55C87 75.4214 70.4214 92 50 92C29.5786 92 13 75.4214 13 55C13 34.5786 29.5786 18 50 18ZM50 36.5C60.2094 36.5 68.5 44.788 68.5 55C68.5 65.2094 60.2094 73.5 50 73.5C39.7906 73.5 31.5 65.2094 31.5 55C31.5 44.788 39.788 36.5 50 36.5Z" fill="#222222"/>
    <path fill-rule="evenodd" clip-rule="evenodd" d="M98.6464 26C100.002 27.2928 99.9761 29.2415 99.9761 30.7752C99.9761 40.9332 99.892 69.8254 99.9998 79.9834C100.01 81.0433 99.666 82.1595 99.1509 83L49 54.8948L98.6464 26Z" fill="#CFCFCF"/>
</svg>