<svg xmlns="http://www.w3.org/2000/svg" width="110" height="110" viewBox="0 0 110 110" fill="none">
    <path d="M50.669 0.0282786C50.412 0.0553327 49.5869 0.150022 48.8429 0.217658C38.2647 1.32688 27.8489 5.80434 19.3539 12.9196C17.7847 14.2182 14.2136 17.7893 12.915 19.3585C5.8809 27.7588 1.76867 37.1871 0.253633 48.347C-0.0845442 50.8224 -0.0845442 59.1822 0.253633 61.6576C1.76867 72.8175 5.8809 82.2458 12.915 90.6461C14.2136 92.2153 17.7847 95.7864 19.3539 97.085C27.7542 104.119 37.1825 108.231 48.3424 109.746C50.8178 110.085 59.1776 110.085 61.653 109.746C72.8129 108.231 82.2412 104.119 90.6415 97.085C92.2107 95.7864 95.7818 92.2153 97.0804 90.6461C104.115 82.2458 108.227 72.8175 109.742 61.6576C110.08 59.1822 110.08 50.8224 109.742 48.347C108.227 37.1871 104.115 27.7588 97.0804 19.3585C95.7818 17.7893 92.2107 14.2182 90.6415 12.9196C82.2683 5.91256 72.7452 1.74622 61.7342 0.271766C60.5438 0.109441 58.8123 0.0418056 55.6064 0.0147515C53.158 -0.0123027 50.9261 0.00122441 50.669 0.0282786ZM51.3454 5.87197C51.3454 7.45464 51.4536 10.8905 51.6024 14.1505C51.6836 15.7467 51.7783 18.0328 51.8188 19.2232C51.9676 23.4436 52.414 34.5223 52.4817 35.5098L52.5493 36.4973L51.9406 36.4296C51.6024 36.4026 51.2913 36.3214 51.2372 36.2808C51.1966 36.2267 51.1019 35.2934 51.0478 34.1977C50.8043 29.382 50.0062 10.7011 49.9251 7.96867L49.8439 4.96566L50.2226 4.91155C50.4256 4.8845 50.7637 4.84392 50.9802 4.83039L51.3454 4.81686V5.87197ZM64.2908 5.54732C64.3043 5.56085 64.3449 9.64603 64.3855 14.624C64.4396 19.6155 64.5072 24.0929 64.5478 24.5799C64.5884 25.0804 64.5749 25.5133 64.5072 25.5403C64.4531 25.5809 64.115 25.5809 63.7768 25.5403L63.1545 25.4862L63.0598 21.5499C63.0057 19.372 62.9381 16.9642 62.911 16.1796C62.8028 13.7853 62.7081 5.65554 62.7893 5.45263C62.8434 5.30384 62.9922 5.29031 63.5603 5.385C63.9526 5.46616 64.2773 5.5338 64.2908 5.54732ZM33.0027 10.0789C33.0838 10.2006 33.7196 17.6541 34.5042 27.4071C34.7612 30.7212 35.0182 33.7513 35.0588 34.13C35.1264 34.8199 35.1129 34.847 34.68 35.1175C34.4366 35.2663 34.1931 35.388 34.139 35.388C34.0984 35.388 34.0172 35.0363 33.9766 34.6035C33.7873 32.845 33.0568 24.35 32.5428 18.2087C32.2452 14.5969 31.9746 11.364 31.934 11.0123C31.8664 10.4171 31.8799 10.363 32.2316 10.1736C32.6645 9.94362 32.908 9.90304 33.0027 10.0789ZM70.2427 12.7978C70.6215 12.9331 70.6621 13.0007 70.7432 13.7718C70.8785 15.1245 70.8379 21.5904 70.6891 21.5904C70.2968 21.5904 69.4852 21.1305 69.4176 20.8735C69.377 20.7112 69.3364 18.7903 69.3364 16.6125C69.3364 12.2162 69.2823 12.4732 70.2427 12.7978ZM45.2582 13.4336C45.2582 13.7988 45.3529 15.8144 45.4611 17.9381C45.5693 20.0619 45.6911 22.7538 45.7452 23.9171C45.8399 26.2708 45.8669 26.1896 44.9606 26.2437C44.5142 26.2573 44.5142 26.2573 44.4872 25.5809C44.4601 25.2022 44.3925 24.0253 44.3113 22.9431C44.2437 21.861 44.0814 19.5208 43.9731 17.7352C43.8649 15.9496 43.7297 14.1776 43.6891 13.7988C43.6079 13.1225 43.6214 13.0954 43.9867 12.9602C44.2031 12.879 44.5819 12.8114 44.8253 12.8114C45.2582 12.7978 45.2582 12.7978 45.2582 13.4336ZM82.7823 15.2868L83.2422 15.4762L83.3369 17.2888C83.3775 18.2763 83.4046 20.4136 83.3775 22.0233L83.3369 24.9722L82.7688 24.6881L82.2007 24.4176L82.1601 19.9266C82.133 17.4511 82.1465 15.3545 82.1736 15.2598C82.2277 15.0569 82.2277 15.0569 82.7823 15.2868ZM58.0819 17.0589C58.163 17.14 58.3524 23.7007 58.3659 27.0283L58.3795 29.0303L57.7437 28.9356C57.3785 28.8951 57.0809 28.8545 57.0673 28.8409C57.0268 28.8139 56.621 18.7903 56.621 17.8164V16.8154L57.3108 16.8965C57.7031 16.9506 58.0413 17.0183 58.0819 17.0589ZM89.2347 18.0193C89.3971 18.2087 89.4241 21.1711 89.4647 37.5118C89.5053 56.2738 89.5053 56.7608 89.2618 56.7608C89.113 56.7608 88.9101 56.6797 88.7883 56.585C88.5854 56.4362 88.5584 54.7994 88.4907 38.7698C88.4366 29.0574 88.369 20.2377 88.3284 19.1691L88.2473 17.2212L88.6395 17.5053C88.8695 17.6676 89.1265 17.8975 89.2347 18.0193ZM77.1009 20.7923C77.1686 20.8464 77.2362 21.6175 77.2497 22.4967C77.3174 25.4862 77.3309 43.8154 77.2633 43.8695C77.2362 43.8966 76.9927 43.8289 76.7222 43.7207L76.2352 43.5178V32.0063V20.5083L76.614 20.5894C76.8169 20.6435 77.0333 20.7247 77.1009 20.7923ZM39.7662 21.5499C39.8068 21.9151 39.8744 22.7402 39.915 23.4166C39.9556 24.0794 40.0503 25.5944 40.1314 26.7713C40.2938 29.1521 40.2667 29.3009 39.4957 29.3009C39.0899 29.3009 39.0358 29.2603 38.9816 28.8545C38.8464 28.0564 38.3729 21.4011 38.4406 21.2928C38.5082 21.1981 39.2116 20.9547 39.5363 20.9276C39.6174 20.9141 39.7256 21.1981 39.7662 21.5499ZM17.3924 24.9993C17.5412 26.4331 17.8388 29.4361 18.0553 31.6681C18.2852 33.9001 18.4746 35.7939 18.4746 35.875C18.4746 36.0373 17.433 36.5514 17.3248 36.4432C17.2572 36.3755 15.9045 24.4041 15.9045 23.863C15.9045 23.5383 16.946 22.1721 17.0813 22.3209C17.1219 22.3479 17.2572 23.5519 17.3924 24.9993ZM70.4321 26.4196L70.8244 26.6496L70.8379 29.5714C70.8514 31.1676 70.8785 32.9532 70.8785 33.5348C70.9055 34.7523 70.7567 34.9552 70.0263 34.6982L69.6069 34.5494V33.386C69.6069 32.7367 69.5664 30.8565 69.5123 29.1926L69.4311 26.1896H69.7422C69.9045 26.1896 70.2157 26.2979 70.4321 26.4196ZM23.3308 31.6681C23.5743 34.2653 23.9666 38.6481 24.2236 41.4076L24.6835 46.4126L24.156 46.9402L23.6419 47.4677L23.5473 46.3991C23.4931 45.8039 23.2226 43.0444 22.9385 40.2578C22.6545 37.4712 22.2487 33.4266 22.0458 31.2758L21.667 27.38L22.1945 26.893C22.668 26.4467 22.7221 26.4331 22.8168 26.6766C22.8709 26.8119 23.1009 29.0574 23.3308 31.6681ZM13.199 33.3049C13.4966 35.9697 14.2812 43.0579 14.9576 49.0504C15.6339 55.0429 16.2697 60.8189 16.3914 61.9011C16.4996 62.9833 16.689 64.6201 16.7972 65.5534C16.9866 67.1361 16.9866 67.2443 16.7702 67.4066C16.4455 67.6501 16.3103 67.6231 16.3103 67.339C16.3103 67.2172 16.1885 66.1892 16.0397 65.08C15.7962 63.2268 15.3904 60.0885 14.4841 53.0409C14.2947 51.6205 13.9295 48.7934 13.6725 46.7508C13.4019 44.7082 13.0097 41.6646 12.7932 39.9873C12.5768 38.3099 12.2116 35.4422 11.9816 33.5889C11.7381 31.7493 11.5893 30.1125 11.6299 29.9366C11.7246 29.5714 12.5227 28.2999 12.6039 28.381C12.6309 28.4216 12.9014 30.6265 13.199 33.3049ZM9.05976 39.135C9.26266 40.7583 9.64142 43.7207 9.89844 45.7363C10.1555 47.7383 10.4801 50.2408 10.6289 51.2824L10.8859 53.1761L10.6018 53.4196C10.4395 53.5549 10.2772 53.609 10.2231 53.5549C10.169 53.5008 10.0608 52.9597 9.9796 52.3645C9.89844 51.7693 9.39794 48.2929 8.85685 44.6541L7.89643 38.0258L8.20755 37.106C8.36988 36.6055 8.54573 36.1997 8.58631 36.1997C8.64042 36.1997 8.84333 37.5253 9.05976 39.135ZM83.3234 37.363C83.5128 37.5524 83.5398 38.3911 83.5398 44.6V51.6205H83.1611C82.3359 51.6205 82.3494 51.8234 82.2953 44.1401L82.2548 37.1466H82.6876C82.9176 37.1466 83.2152 37.2413 83.3234 37.363ZM53.7126 39.7843C56.7698 40.2443 59.4346 41.0965 62.0724 42.4492C63.7768 43.3284 64.5884 43.9372 66.4822 45.7498C69.2958 48.4417 71.0273 50.7954 72.6505 54.123C75.0178 58.9657 75.9376 63.2538 77.1009 74.7518C77.6285 79.9056 78.3184 89.2529 78.4672 93.081C78.5078 94.1902 78.6025 96.0164 78.6836 97.1391C78.8324 99.5199 79.0083 99.1953 76.9116 100.21C74.0032 101.617 71.2031 102.591 67.5102 103.497C62.9922 104.606 60.0704 104.958 55.6064 104.971L52.3599 104.985L52.387 103.429C52.387 102.577 52.4681 100.589 52.5493 99.0329C52.9551 91.4983 52.874 81.9888 52.3464 76.7133C52.0488 73.6832 51.4671 70.0038 51.1425 69.1922C51.0749 69.0164 51.386 68.8676 52.7252 68.4076C55.1736 67.5554 57.2973 66.4868 57.622 65.9592C58.2036 64.9582 57.162 63.5244 55.8364 63.5244C55.6064 63.5244 54.9165 63.7678 54.2808 64.0519C51.2507 65.4452 45.177 67.082 41.6735 67.4472C39.2522 67.7042 35.4917 67.5554 32.8809 67.082C31.4606 66.825 28.9175 65.8645 26.7938 64.7688C24.3454 63.4973 22.8438 61.8064 22.3975 59.8044C22.154 58.7222 22.2216 56.5579 22.5327 55.3405C22.8709 54.0013 23.8178 52.0534 24.6835 50.9171C28.5387 45.8445 36.4927 41.4482 44.6495 39.9061C47.2467 39.4191 50.9261 39.365 53.7126 39.7843ZM95.4437 40.2037C95.9306 40.4066 95.9847 40.4607 95.9847 40.9206C96.0118 44.6135 95.9306 53.0544 95.863 53.4061C95.8495 53.5279 95.1461 53.5414 94.8485 53.4332C94.6591 53.3655 94.632 52.6351 94.632 46.6696C94.632 42.3951 94.6861 39.9873 94.7673 39.9873C94.8349 39.9873 95.1461 40.0819 95.4437 40.2037ZM101.355 47.63L101.842 47.833L101.747 59.0334C101.639 73.3044 101.626 73.7238 101.112 74.9547C100.273 76.9703 100.313 77.3761 100.395 68.5294C100.422 64.106 100.489 59.6286 100.516 58.587C100.543 57.5454 100.57 54.61 100.584 52.0534C100.584 48.9692 100.625 47.4271 100.719 47.4271C100.8 47.4271 101.084 47.5218 101.355 47.63ZM20.0032 50.9983C20.0843 52.094 20.0573 52.2022 19.665 53.0679L19.2321 53.9878L19.0698 52.6351C18.8128 50.4707 18.8128 50.376 19.3268 50.0514C19.5568 49.8891 19.8003 49.7809 19.8408 49.8079C19.8814 49.835 19.9626 50.376 20.0032 50.9983ZM11.6434 59.1551C11.7652 60.2643 12.7121 67.6231 13.199 71.2348C13.9295 76.8215 13.9836 77.6196 13.659 77.2814C13.6184 77.2408 13.3073 75.3605 12.9826 73.1015C10.8724 58.5193 10.8859 58.614 11.0618 58.5058C11.427 58.2623 11.5487 58.3976 11.6434 59.1551ZM21.3829 65.3505C21.4641 65.6887 21.8564 69.3545 21.8564 69.8009C21.8564 70.1797 21.3694 70.5314 21.153 70.3149C21.0853 70.2473 20.9095 69.0975 20.7742 67.7719C20.6254 66.4327 20.4766 65.0394 20.436 64.6742L20.3549 63.9978L20.8283 64.5389C21.0989 64.8365 21.3423 65.2017 21.3829 65.3505ZM32.2993 70.4502C32.4481 70.5855 32.5428 71.1266 32.6645 72.5875C32.8674 75.2253 32.8945 75.0224 32.3399 75.0224C31.7717 75.0224 31.7852 75.063 31.5959 72.6822C31.4065 70.2608 31.4065 70.2879 31.7717 70.2879C31.9476 70.2879 32.1775 70.3691 32.2993 70.4502ZM43.0127 70.6531C43.0398 70.7884 43.1074 71.6 43.1615 72.4522C43.2021 73.3044 43.3238 75.2253 43.4321 76.7133C43.8108 82.1782 43.8243 82.8681 43.5944 82.8681C43.3374 82.8681 43.3103 82.6652 43.0127 78.81C42.9045 77.2138 42.7016 74.6977 42.5663 73.2233C42.4446 71.7488 42.3634 70.5179 42.404 70.4908C42.5528 70.3285 42.9451 70.4502 43.0127 70.6531ZM17.5818 73.2503C17.663 73.3721 18.177 77.7007 18.8128 83.6121C19.0022 85.3976 19.1915 87.1156 19.2321 87.4402L19.2998 88.0219L18.9616 87.8055C18.7046 87.6296 18.6099 87.4538 18.6099 87.1426C18.6099 86.2904 18.0282 80.6767 17.5818 77.2408C17.3248 75.2929 17.1219 73.575 17.1219 73.4126C17.1219 73.1286 17.4465 73.0204 17.5818 73.2503ZM95.6466 78.9046L95.5519 84.559L95.2137 85.0595C94.4427 86.1957 94.4832 86.4122 94.5238 80.0815L94.5509 74.2784L95.0514 73.7644C95.3219 73.4938 95.5925 73.2639 95.6466 73.2639C95.6871 73.2639 95.6871 75.8069 95.6466 78.9046ZM83.134 87.8731C83.2017 95.7323 83.1881 96.341 82.9717 96.5845C82.8364 96.7333 82.7147 96.828 82.6741 96.7874C82.5794 96.6792 82.4441 79.5404 82.5524 79.4457C82.6065 79.3916 82.7417 79.3646 82.8635 79.3781C83.0393 79.4187 83.0799 80.3791 83.134 87.8731ZM38.9546 82.4893C39.0493 83.328 39.3875 87.3455 39.5227 89.2393C39.6039 90.5109 39.6039 90.5515 39.3063 90.6461C39.144 90.7002 38.9546 90.6867 38.9005 90.6191C38.8058 90.5244 38.5082 87.5214 38.143 82.8951L38.0483 81.7859H38.4676C38.8599 81.7859 38.887 81.813 38.9546 82.4893ZM28.3223 87.2238C28.417 87.3185 28.4846 87.6567 28.4846 87.9948C28.4846 88.3465 28.647 90.1727 28.8228 92.0665C29.3368 97.2474 29.3774 97.9508 29.1475 97.8155C28.7958 97.6126 28.4846 97.3015 28.5523 97.2203C28.5793 97.1662 28.5252 96.4898 28.417 95.7188C28.3223 94.9342 28.2006 93.6627 28.1465 92.8781C28.0924 92.0935 27.9706 90.6597 27.8624 89.6992C27.6054 87.332 27.6189 87.0615 27.9165 87.0615C28.0518 87.0615 28.2276 87.1291 28.3223 87.2238ZM34.7206 96.3275C34.7612 96.6251 34.8424 97.7343 34.8965 98.7894C34.9912 100.818 34.9506 100.967 34.396 100.548C34.2336 100.426 34.1254 99.9122 33.9631 98.3701C33.679 95.5835 33.6655 95.6917 34.1931 95.7458C34.5853 95.7864 34.6395 95.8405 34.7206 96.3275Z" fill="white"/>
    <path d="M29.8914 46.2639C28.4846 46.8726 28.3764 48.7799 29.7021 49.4562C30.6625 49.9432 31.6364 49.7133 32.1369 48.8746C33.0838 47.3325 31.5417 45.5469 29.8914 46.2639Z" fill="white"/>
    <path d="M39.0628 47.5624C37.7642 48.3605 37.7642 50.2813 39.0628 51.0794C40.3479 51.8505 42.0117 50.8359 42.0117 49.2938C42.0117 47.8059 40.3073 46.8049 39.0628 47.5624Z" fill="white"/>
</svg>