<svg xmlns="http://www.w3.org/2000/svg" width="112" height="110" viewBox="0 0 112 110" fill="none">
    <path fill-rule="evenodd" clip-rule="evenodd" d="M103.164 85.0807C97.071 84.9099 92.3445 85.5384 88.3831 87.2155C87.2424 87.6767 85.4119 87.6766 85.2617 89.1215C85.8713 89.7278 85.9447 90.72 86.4792 91.5603C87.3927 93.0854 88.9944 95.14 90.4406 96.2057L95.3157 99.7119C98.2868 101.539 101.639 102.607 104.533 104.436C106.21 105.503 107.885 106.875 109.562 108.019C110.415 108.629 110.933 109.621 112 110V109.769C111.467 109.086 111.314 108.096 110.783 107.331L108.494 105.122C106.287 102.151 103.543 99.5582 100.571 97.4268C98.1331 95.7497 92.8022 93.4646 91.8118 90.6466L91.6615 90.4758C93.3349 90.305 95.3157 89.7124 96.9173 89.2547C99.5094 88.5716 101.869 88.7219 104.533 88.037L108.192 86.9696V86.2865C106.821 84.9151 105.831 83.0859 104.384 81.7914C100.5 78.4389 96.2309 75.1615 91.8118 72.4187C89.4503 70.8953 86.4023 69.903 83.8888 68.6102C82.9719 68.1525 81.4505 67.9236 80.9177 67.1619C79.5432 65.4882 78.7833 63.2765 77.7929 61.2937L71.5468 48.0357C70.1756 45.064 69.3355 42.0923 67.6621 39.3495C59.8143 26.3954 51.28 18.5479 38.1764 10.8506C35.359 9.2503 32.0071 8.56203 28.4434 7.72518L22.73 7.41777C21.5091 6.88492 20.2917 5.43666 19.2244 4.7501C14.8822 2.00729 3.68246 -3.93604 0.480835 3.89617C-1.57675 8.84895 3.52878 13.7249 5.26193 16.2405C6.55965 17.9928 8.23304 19.9739 9.14999 21.955C9.66225 23.2496 9.83301 24.6227 10.3675 25.9941C11.5849 29.3466 12.729 33.0817 14.3289 36.2071C15.1827 37.8073 16.0792 39.4861 17.1464 40.9327C17.756 41.7866 18.8232 42.1521 19.0503 43.5235C17.9831 45.0486 17.9096 47.332 17.3001 49.2397C14.556 57.8507 15.6233 68.5179 19.5079 74.8575C20.7288 76.7618 23.606 80.9545 27.5094 79.3526C30.9382 77.9812 30.1732 73.6381 31.1635 69.8279C31.3941 68.9142 31.2404 68.3045 31.6963 67.6931V67.8638L34.8211 74.188C37.1826 77.9214 41.2978 81.8085 44.7248 84.401C46.5519 85.7724 47.9998 88.1361 50.2845 88.9729V88.7423H50.1343C49.6767 88.0592 48.9902 87.7518 48.3806 87.2189C47.0095 85.8475 45.4864 84.1704 44.4191 82.647C41.2209 78.3808 38.4035 73.6552 35.8883 68.7793C34.6674 66.4173 33.6002 63.8265 32.6132 61.4645C32.1522 60.5491 32.1522 59.176 31.3924 58.7217C30.2483 60.3954 28.5749 61.8471 27.7331 63.9033C26.2851 67.179 26.1348 71.2181 25.6021 75.4091C25.2947 75.486 25.4314 75.4091 25.2948 75.5799C22.8598 74.9719 22.0197 72.4546 21.1062 70.3232C18.8215 64.9127 18.439 56.2265 20.4197 49.9775C20.9525 48.3772 23.2406 43.3476 22.327 41.8242C21.866 40.3759 20.3463 39.5391 19.5062 38.3948C18.5158 36.9466 17.452 35.1192 16.7656 33.5189C14.9385 29.2493 14.025 24.527 12.0426 20.2591C11.1256 18.278 9.52736 16.22 8.23134 14.3926C6.78335 12.3347 5.1868 10.8864 4.04275 8.44931C3.66197 7.59539 3.12922 6.23935 3.73881 5.32394C3.88907 4.71424 4.19643 4.47001 4.8026 4.33339C5.79298 3.47946 8.61382 4.56224 9.60419 5.01653C12.4216 6.16079 14.7831 7.22649 17.1447 8.82504C18.2119 9.58675 19.3559 11.035 20.7271 11.4176H22.3287C24.7671 11.9504 27.5077 11.5884 29.7907 12.2715C33.829 13.5695 37.4848 15.472 40.7633 17.5317C50.7421 23.8559 58.9725 32.8477 64.5322 43.5935C65.4457 45.3458 65.8265 46.946 66.6666 48.7752C68.2683 52.5102 70.249 56.3188 71.8456 59.9787C73.4473 63.5601 74.9704 67.22 77.2551 70.1916C78.3991 71.7919 82.9685 72.6287 85.0243 73.4673C86.5492 74.1504 88.909 74.7653 90.2836 75.6021C92.8722 77.2024 95.4625 79.0315 97.8992 80.7838C99.1166 81.6958 102.928 83.6017 103.155 85.1217L103.164 85.0807ZM25.4706 18.8638C24.418 18.8545 23.3687 18.9825 22.3492 19.2447V19.4154H22.4995C23.1091 20.6349 24.1763 21.4734 24.9379 22.5408L26.6915 26.199L26.8418 26.0283C27.909 25.2665 28.4434 24.0471 28.4434 22.2197C27.9858 21.6869 27.9107 21.1523 27.5299 20.6195C27.0723 19.8578 26.0819 19.4752 25.4706 18.8672V18.8638Z" fill="white"/>
</svg>