<svg xmlns="http://www.w3.org/2000/svg" viewBox="0 0 110 110" fill="none">
    <path d="M109.247 53.6523L104.63 50.7924C104.591 50.3439 104.548 49.8959 104.5 49.4483L108.467 45.7462C108.667 45.5627 108.816 45.3308 108.9 45.0728C108.985 44.8148 109.001 44.5394 108.949 44.2732C108.896 44.0069 108.775 43.7588 108.599 43.5526C108.422 43.3464 108.196 43.1891 107.941 43.0959L102.867 41.1984C102.74 40.7603 102.608 40.3237 102.472 39.8887L105.634 35.4922C105.793 35.2728 105.893 35.0163 105.925 34.7472C105.957 34.4781 105.919 34.2054 105.816 33.9549C105.712 33.7044 105.547 33.4846 105.334 33.3162C105.122 33.1479 104.87 33.0367 104.603 32.9932L99.2506 32.1235C99.0444 31.7179 98.8278 31.3191 98.6078 30.9204L100.856 25.9876C100.971 25.7413 101.02 25.4696 101 25.1987C100.979 24.9277 100.889 24.6667 100.738 24.4407C100.587 24.2148 100.38 24.0316 100.138 23.9087C99.8952 23.7859 99.6252 23.7276 99.3538 23.7395L93.926 23.9286C93.645 23.5781 93.3585 23.232 93.0666 22.8905L94.3144 17.6002C94.3778 17.3365 94.3725 17.0609 94.2989 16.7999C94.2253 16.5388 94.086 16.301 93.8942 16.1092C93.7024 15.9174 93.4646 15.7781 93.2035 15.7045C92.9425 15.6309 92.6669 15.6256 92.4032 15.689L87.1163 16.9333C86.7726 16.6446 86.4288 16.3593 86.0748 16.074L86.2638 10.6496C86.2757 10.3782 86.2174 10.1082 86.0946 9.8658C85.9718 9.6234 85.7886 9.41674 85.5626 9.26577C85.3367 9.11479 85.0756 9.0246 84.8047 9.00388C84.5337 8.98316 84.262 9.03261 84.0157 9.14748L79.083 11.3956C78.6845 11.1754 78.2834 10.96 77.8798 10.7493L77.0102 5.40064C76.9669 5.13346 76.856 4.88179 76.6881 4.66952C76.5201 4.45724 76.3008 4.2914 76.0507 4.18774C75.8007 4.08408 75.5284 4.04604 75.2595 4.07723C74.9906 4.10843 74.7342 4.20782 74.5145 4.36597L70.1146 7.52843C69.681 7.39063 69.2456 7.25885 68.8083 7.13313L66.9109 2.05943C66.8172 1.80491 66.6599 1.57866 66.4538 1.40235C66.2478 1.22605 65.9999 1.10557 65.734 1.05245C65.468 0.999332 65.1929 1.01535 64.9349 1.09897C64.677 1.1826 64.4448 1.33102 64.2606 1.53005L60.5584 5.50376C60.1115 5.45564 59.6647 5.40752 59.2144 5.37314L56.3544 0.753188C56.2121 0.522915 56.0132 0.33284 55.7768 0.201017C55.5404 0.0691949 55.2741 0 55.0034 0C54.7327 0 54.4665 0.0691949 54.2301 0.201017C53.9937 0.33284 53.7948 0.522915 53.6525 0.753188L50.7925 5.37314C50.3457 5.40752 49.8954 5.45564 49.4485 5.50376L45.7463 1.53349C45.561 1.33709 45.3289 1.19096 45.0717 1.10877C44.8145 1.02658 44.5406 1.01104 44.2757 1.0636C44.0109 1.11616 43.7637 1.2351 43.5574 1.40927C43.351 1.58345 43.1923 1.80715 43.096 2.05943L41.1985 7.13313C40.7585 7.26031 40.322 7.39437 39.8923 7.53187L35.4923 4.36597C35.2734 4.20505 35.0167 4.10324 34.747 4.07037C34.4774 4.03751 34.2037 4.07469 33.9526 4.17833C33.7015 4.28196 33.4812 4.44856 33.3132 4.66206C33.1452 4.87555 33.035 5.12874 32.9933 5.3972L32.1202 10.7493C31.718 10.959 31.3192 11.1756 30.917 11.3956L25.9877 9.14748C25.7417 9.03277 25.4703 8.98332 25.1997 9.00389C24.929 9.02446 24.6682 9.11434 24.4424 9.26491C24.2165 9.41547 24.0332 9.62164 23.9101 9.86356C23.7871 10.1055 23.7283 10.375 23.7396 10.6462L23.9287 16.0774C23.578 16.3593 23.2309 16.6446 22.8871 16.9368L17.6003 15.689C17.3367 15.6279 17.0619 15.6348 16.8018 15.7091C16.5416 15.7835 16.3047 15.9228 16.1132 16.1139C15.9217 16.305 15.782 16.5417 15.7072 16.8018C15.6324 17.0618 15.6249 17.3365 15.6856 17.6002L16.9334 22.8905C16.6412 23.2342 16.3559 23.578 16.074 23.9286L10.6462 23.7395C10.3754 23.7296 10.1065 23.7891 9.86522 23.9125C9.6239 24.0358 9.41817 24.2189 9.2676 24.4442C9.11703 24.6696 9.02663 24.9297 9.00501 25.1999C8.98338 25.47 9.03126 25.7412 9.14407 25.9876L11.3922 30.9238C11.1756 31.3191 10.9591 31.7179 10.7494 32.1269L5.40066 32.9932C5.13291 33.0362 4.88065 33.147 4.66789 33.3152C4.45513 33.4833 4.28897 33.7031 4.18523 33.9537C4.0815 34.2042 4.04365 34.4771 4.07529 34.7465C4.10693 35.0158 4.207 35.2725 4.36598 35.4922L7.52846 39.8887C7.39096 40.3218 7.26034 40.7584 7.13315 41.195L2.05943 43.0959C1.80584 43.1906 1.58067 43.3487 1.40533 43.5549C1.22999 43.7612 1.11028 44.0089 1.05759 44.2744C1.00489 44.5399 1.02096 44.8146 1.10425 45.0721C1.18754 45.3297 1.3353 45.5618 1.53349 45.7462L5.50378 49.4483C5.45222 49.8952 5.40753 50.3421 5.36972 50.7924L0.75319 53.6523C0.522916 53.7947 0.332841 53.9935 0.201018 54.2299C0.0691951 54.4664 0 54.7326 0 55.0033C0 55.274 0.0691951 55.5402 0.201018 55.7766C0.332841 56.0131 0.522916 56.2119 0.75319 56.3542L5.36972 59.2107C5.40753 59.661 5.45222 60.1113 5.50378 60.5582L1.53349 64.2604C1.3353 64.4448 1.18754 64.6768 1.10425 64.9344C1.02096 65.192 1.00489 65.4666 1.05759 65.7321C1.11028 65.9977 1.22999 66.2453 1.40533 66.4516C1.58067 66.6579 1.80584 66.8159 2.05943 66.9106L7.13315 68.8081C7.26034 69.2481 7.39439 69.6847 7.53189 70.1144L4.36598 74.5143C4.20783 74.734 4.10844 74.9904 4.07725 75.2592C4.04605 75.5281 4.08409 75.8005 4.18775 76.0505C4.29141 76.3005 4.45725 76.5199 4.66953 76.6878C4.88181 76.8557 5.13348 76.9666 5.40066 77.0099L10.7494 77.8796C10.9591 78.2852 11.1722 78.6874 11.3956 79.0827L9.14407 84.0155C9.03126 84.2619 8.98338 84.5331 9.00501 84.8032C9.02663 85.0734 9.11703 85.3335 9.2676 85.5588C9.41817 85.7842 9.6239 85.9672 9.86522 86.0906C10.1065 86.214 10.3754 86.2735 10.6462 86.2636L16.074 86.0745C16.3559 86.4286 16.6412 86.7723 16.9334 87.1161L15.6856 92.4063C15.6216 92.6703 15.6267 92.9463 15.7004 93.2077C15.7741 93.4691 15.9139 93.7071 16.1063 93.8988C16.2987 94.0905 16.5372 94.2294 16.7989 94.3022C17.0605 94.3749 17.3365 94.379 17.6003 94.3141L22.8871 93.0698C23.2309 93.3619 23.578 93.6438 23.9287 93.9257L23.7396 99.3569C23.7293 99.6277 23.7887 99.8967 23.912 100.138C24.0354 100.379 24.2186 100.585 24.4441 100.736C24.6696 100.886 24.93 100.976 25.2002 100.997C25.4705 101.018 25.7416 100.969 25.9877 100.856L30.9205 98.6075C31.3158 98.8275 31.718 99.0441 32.1236 99.2538L32.9933 104.599C33.0349 104.868 33.1449 105.121 33.3127 105.335C33.4804 105.548 33.7004 105.715 33.9513 105.82C34.2023 105.924 34.4758 105.962 34.7457 105.93C35.0156 105.898 35.2727 105.797 35.4923 105.637L39.8889 102.468C40.322 102.605 40.7585 102.743 41.1951 102.867L43.0926 107.94C43.1858 108.195 43.3431 108.422 43.5493 108.598C43.7555 108.775 44.0036 108.895 44.2699 108.948C44.5361 109.001 44.8115 108.984 45.0695 108.9C45.3275 108.816 45.5594 108.666 45.7429 108.466L49.4485 104.496C49.8954 104.547 50.3422 104.592 50.7925 104.633L53.6525 109.25C53.7954 109.479 53.9945 109.669 54.2308 109.8C54.4672 109.931 54.7331 110 55.0034 110C55.2738 110 55.5397 109.931 55.776 109.8C56.0124 109.669 56.2114 109.479 56.3544 109.25L59.2109 104.63C59.6612 104.592 60.1115 104.547 60.5584 104.496L64.2606 108.466C64.4441 108.665 64.6758 108.814 64.9334 108.898C65.191 108.982 65.4658 108.998 65.7315 108.945C65.9972 108.893 66.2449 108.772 66.4508 108.596C66.6567 108.42 66.8139 108.194 66.9074 107.94L68.8083 102.867C69.2449 102.743 69.6815 102.605 70.1146 102.468L74.5145 105.637C74.7347 105.794 74.9913 105.893 75.2601 105.923C75.5289 105.954 75.801 105.915 76.0508 105.811C76.3006 105.708 76.5197 105.542 76.6876 105.33C76.8554 105.117 76.9665 104.866 77.0102 104.599L77.8833 99.2503C78.2855 99.0441 78.6842 98.8241 79.083 98.6075L84.0157 100.856C84.2621 100.969 84.5335 101.018 84.8041 100.997C85.0746 100.976 85.3352 100.885 85.5609 100.735C85.7865 100.584 85.9696 100.378 86.0927 100.136C86.2158 99.894 86.2747 99.6246 86.2638 99.3534L86.0748 93.9222C86.4254 93.6472 86.7726 93.3619 87.1163 93.0698L92.4032 94.3141C92.6667 94.3783 92.9422 94.3736 93.2034 94.3006C93.4646 94.2275 93.7026 94.0885 93.8945 93.8969C94.0865 93.7053 94.2259 93.4676 94.2994 93.2065C94.373 92.9455 94.3781 92.6699 94.3144 92.4063L93.0701 87.1161C93.3588 86.7723 93.6441 86.4286 93.926 86.0745L99.3572 86.2636C99.6284 86.2748 99.8979 86.2161 100.14 86.093C100.382 85.9699 100.588 85.7867 100.739 85.5608C100.889 85.335 100.979 85.0742 101 84.8035C101.02 84.5329 100.971 84.2615 100.856 84.0155L98.6078 79.0827C98.8278 78.6874 99.0409 78.2852 99.2506 77.8796L104.599 77.0099C104.868 76.9684 105.121 76.8585 105.334 76.6909C105.547 76.5233 105.714 76.3036 105.818 76.0529C105.922 75.8022 105.96 75.529 105.927 75.2595C105.895 74.9901 105.794 74.7334 105.634 74.5143L102.472 70.1144C102.608 69.6805 102.74 69.245 102.867 68.8081L107.941 66.9106C108.196 66.8174 108.422 66.6601 108.599 66.454C108.775 66.2478 108.896 65.9996 108.949 65.7333C109.001 65.4671 108.985 65.1917 108.9 64.9337C108.816 64.6758 108.667 64.4439 108.467 64.2604L104.496 60.5582C104.544 60.1113 104.589 59.661 104.63 59.2107L109.247 56.3542C109.477 56.2119 109.667 56.0131 109.799 55.7766C109.931 55.5402 110 55.274 110 55.0033C110 54.7326 109.931 54.4664 109.799 54.2299C109.667 53.9935 109.477 53.7947 109.247 53.6523ZM78.3405 91.9594C77.5121 91.7581 76.795 91.2414 76.3418 90.5194C75.8886 89.7974 75.735 88.9271 75.9137 88.0936C76.0924 87.26 76.5893 86.5292 77.2987 86.0564C78.0081 85.5837 78.8739 85.4064 79.712 85.5623C80.5436 85.761 81.2643 86.2773 81.7201 87.0006C82.1758 87.724 82.3304 88.597 82.1508 89.4328C81.9711 90.2687 81.4715 91.0011 80.7587 91.4733C80.046 91.9454 79.1802 92.1199 78.3405 91.9594ZM76.7695 81.348C76.3872 81.2662 75.9925 81.2606 75.6079 81.3314C75.2234 81.4022 74.8566 81.5481 74.5284 81.7607C74.2003 81.9733 73.9172 82.2484 73.6954 82.5704C73.4737 82.8924 73.3175 83.255 73.2358 83.6374L71.5961 91.2891C66.3832 93.6533 60.724 94.8723 55 94.8641C48.95 94.8641 43.2095 93.5235 38.0567 91.1276L36.417 83.4792C36.3357 83.0965 36.1798 82.7336 35.9582 82.4112C35.7366 82.0888 35.4536 81.8133 35.1254 81.6004C34.7972 81.3874 34.4303 81.2413 34.0455 81.1702C33.6608 81.0992 33.2659 81.1047 32.8833 81.1864L26.1286 82.637C24.8735 81.3454 23.7067 79.9707 22.6362 78.5224H55.5019C55.8731 78.5224 56.1206 78.4536 56.1206 78.1168V66.4913C56.1206 66.151 55.8731 66.0856 55.5019 66.0856H45.8907V58.7123H56.2856C57.2344 58.7123 61.3593 58.9838 62.6793 64.2569C63.0918 65.876 63.9993 71.1525 64.6181 72.8403C65.2368 74.7343 67.753 78.519 70.4343 78.519H86.8104C87.01 78.5172 87.209 78.4976 87.4051 78.4605C86.2707 80.0039 85.0229 81.4649 83.6823 82.8261L76.773 81.3446L76.7695 81.348ZM31.3158 91.7979C30.4777 91.9538 29.6119 91.7765 28.9025 91.3038C28.1931 90.8311 27.6962 90.1002 27.5175 89.2667C27.3388 88.4331 27.4924 87.5628 27.9456 86.8408C28.3988 86.1188 29.1159 85.6021 29.9442 85.4008C30.3645 85.3109 30.7984 85.3048 31.221 85.3826C31.6437 85.4604 32.0468 85.6208 32.4075 85.8544C32.7682 86.0881 33.0794 86.3905 33.3232 86.7444C33.567 87.0983 33.7388 87.4967 33.8286 87.917C33.9184 88.3373 33.9246 88.7711 33.8468 89.1938C33.7689 89.6164 33.6086 90.0196 33.3749 90.3803C33.1413 90.741 32.8389 91.0521 32.485 91.2959C32.1311 91.5398 31.7326 91.7115 31.3124 91.8013L31.3158 91.7979ZM18.8481 41.2431C19.0221 41.6351 19.1172 42.0576 19.1279 42.4864C19.1387 42.9152 19.0648 43.342 18.9107 43.7422C18.7565 44.1425 18.525 44.5085 18.2294 44.8193C17.9338 45.1301 17.5798 45.3797 17.1878 45.5537C16.7957 45.7277 16.3732 45.8228 15.9444 45.8335C15.5156 45.8443 15.0889 45.7705 14.6886 45.6163C14.2883 45.4621 13.9223 45.2306 13.6115 44.935C13.3007 44.6394 13.0512 44.2854 12.8772 43.8934C12.5257 43.1016 12.5032 42.2026 12.8146 41.3942C13.1259 40.5858 13.7457 39.9342 14.5375 39.5828C15.3293 39.2313 16.2282 39.2088 17.0366 39.5202C17.845 39.8316 18.4966 40.4513 18.8481 41.2431ZM15.0153 50.3283L22.0518 47.2002C22.7739 46.8784 23.3388 46.2831 23.6223 45.5452C23.9059 44.8072 23.885 43.9869 23.5643 43.2643L22.1171 39.9884H27.8164V65.68H16.3181C14.8986 60.6946 14.4585 55.4819 15.0153 50.3283ZM45.8941 47.8327V40.26H59.4653C60.1665 40.26 64.4152 41.0712 64.4152 44.2474C64.4152 46.884 61.1565 47.8327 58.4753 47.8327H45.8941ZM95.2185 54.6492C95.2185 55.6529 95.1807 56.6464 95.105 57.6329H90.9801C90.5676 57.6329 90.4026 57.9079 90.4026 58.3101V60.2041C90.4026 64.666 87.8863 65.6353 85.6829 65.8828C83.586 66.1166 81.2554 65.0028 80.9701 63.7172C79.7326 56.7564 77.6702 55.2679 74.4114 52.6967C78.4539 50.1324 82.6614 46.3443 82.6614 41.274C82.6614 35.7981 78.9076 32.3504 76.3502 30.6591C72.7614 28.2942 68.7877 27.8198 67.7152 27.8198H25.0424C30.9387 21.2249 38.8475 16.7612 47.5407 15.1218L52.5697 20.3983C53.7075 21.5877 55.5947 21.6358 56.7806 20.4946L62.4112 15.1115C68.1472 16.1885 73.5804 18.4999 78.3342 21.8856C83.0881 25.2712 87.0488 29.6501 89.9419 34.7188L86.0885 43.4224C85.7687 44.1451 85.7483 44.9651 86.0318 45.7028C86.3153 46.4405 86.8795 47.0358 87.601 47.3583L95.0225 50.6514C95.1497 51.968 95.2185 53.2983 95.2185 54.6492ZM52.5731 10.6325C52.8834 10.3359 53.249 10.1033 53.6492 9.94813C54.0493 9.79294 54.4761 9.71817 54.9052 9.72806C55.3343 9.73796 55.7572 9.83234 56.1498 10.0058C56.5424 10.1793 56.8969 10.4284 57.1931 10.739C57.4897 11.05 57.7221 11.4164 57.8771 11.8173C58.0321 12.2181 58.1066 12.6456 58.0964 13.0752C58.0862 13.5049 57.9915 13.9283 57.8176 14.3213C57.6437 14.7144 57.3941 15.0693 57.0831 15.3659C56.773 15.6621 56.4074 15.8943 56.0074 16.0492C55.6074 16.204 55.1808 16.2785 54.752 16.2683C54.3232 16.258 53.9007 16.1634 53.5085 15.9897C53.1163 15.8159 52.7623 15.5666 52.4666 15.2559C51.869 14.6279 51.5448 13.7887 51.5647 12.9221C51.5847 12.0556 51.9473 11.2322 52.5731 10.6325ZM90.8082 41.4012C91.1601 40.6094 91.8121 39.9899 92.6208 39.6788C93.4296 39.3678 94.3287 39.3907 95.1205 39.7426C95.9123 40.0945 96.5319 40.7466 96.8429 41.5553C97.1539 42.364 97.131 43.2631 96.7791 44.0549C96.6048 44.447 96.3551 44.8009 96.0441 45.0964C95.733 45.3919 95.3669 45.6233 94.9664 45.7773C94.566 45.9313 94.1391 46.005 93.7103 45.994C93.2814 45.9831 92.8588 45.8878 92.4668 45.7135C92.0747 45.5393 91.7208 45.2895 91.4253 44.9785C91.1298 44.6675 90.8984 44.3013 90.7444 43.9009C90.5904 43.5004 90.5167 43.0736 90.5277 42.6447C90.5386 42.2158 90.6339 41.7933 90.8082 41.4012Z" fill="white"/>
</svg>